<svg width="48" height="62" viewBox="0 0 48 62" fill="none" xmlns="http://www.w3.org/2000/svg">
<path fill-rule="evenodd" clip-rule="evenodd" d="M48 28.8641C47.9967 26.1025 45.7601 22.7728 43 21.4208L32 16.0453V14.0453L33 14.534C33.5523 14.8039 34 14.575 34 14.0227V11.0227C34 9.91812 33.1046 8.58511 32 8.04534L16 0.226534C14.8954 -0.313242 14 0.144614 14 1.24918V4.24918C14 4.80147 14.4477 5.46797 15 5.73786L16 6.22653V8.22653L5 2.85111C2.23995 1.50564 0.00330612 2.64929 0 5.40773V13.4077C0.00330612 16.1694 2.23995 19.499 5 20.8511C5.55228 21.121 6 20.8921 6 20.3398C6 19.7875 5.55228 19.121 5 18.8511C3.34315 18.0414 2 16.0419 2 14.3851V6.38508C2 4.72823 3.34315 4.04144 5 4.85111L43 23.4208C44.6569 24.2304 46 26.2299 46 27.8868V35.8868C46 37.5436 44.6569 38.2304 43 37.4208C42.4477 37.1509 42 37.3798 42 37.9321C42 38.4844 42.4477 39.1509 43 39.4208C45.7601 40.7662 47.9967 39.6226 48 36.8641V28.8641ZM21 24.6699L27 27.602C27.999 28.0903 28.8446 29.2408 28.981 30.297L29.618 31.8813L32.269 33.1768C32.6261 32.7328 33.2858 32.6741 34 33.0227L38 34.9774C39.1046 35.5172 40 36.8502 40 37.9547L34 35.0227C34 35.575 33.5523 35.8039 33 35.534L29 33.5793C28.621 33.3943 28.2744 33.0108 28.105 32.5889L27.105 30.1003C27.0358 29.9276 26.9999 29.757 27 29.602L21 26.6699C21.0001 26.8251 20.9642 26.9606 20.895 27.0656L19.895 28.5769C19.7256 28.8332 19.379 28.878 19 28.6926L15 26.7379C14.4477 26.468 14 25.8015 14 25.2492L8 22.3171C8 21.2126 8.89543 20.7547 10 21.2945L14 23.2492C14.7142 23.5985 15.3739 24.3021 15.731 25.0951L18.382 26.3906L19.019 25.4288C19.1554 24.5059 20.001 24.1819 21 24.6699ZM41.9988 60.9315L6 43.3398C5.19738 42.971 4.42061 42.2829 3.85283 41.4377C3.28505 40.5924 2.97653 39.6649 3 38.8738V21.8738C3 21.3215 3.44772 21.0925 4 21.3624C4.55228 21.6323 5 22.2988 5 22.8511V39.8511C4.97325 40.1106 5.06998 40.428 5.26362 40.7163C5.45726 41.0046 5.72746 41.2333 6 41.3398L41.9988 58.9315C42.2713 59.0914 42.5415 59.1267 42.7351 59.0277C42.9288 58.9287 43.0255 58.7058 42.9988 58.4202V41.4202C42.9988 40.8679 43.4465 40.6389 43.9988 40.9088C44.551 41.1787 44.9988 41.8452 44.9988 42.3975V59.3975C45.0222 60.2116 44.7137 60.8376 44.1459 61.1279C43.5781 61.4182 42.8014 61.3472 41.9988 60.9315ZM16 2.22653V4.22653L32 12.0453V10.0453L16 2.22653ZM30 13.068V15.068L18 9.20388V7.20388L30 13.068ZM23 29.6473L25 30.6246C25.5523 30.8945 26 31.561 26 32.1133C26 32.6656 25.5523 32.8945 25 32.6246L23 31.6473C22.4477 31.3774 22 30.7109 22 30.1586C22 29.6063 22.4477 29.3774 23 29.6473ZM19 15.6926C19 16.2448 19.4477 16.9113 20 17.1812L28 21.0906C28.5523 21.3605 29 21.1316 29 20.5793C29 20.027 28.5523 19.3605 28 19.0906L20 15.1812C19.4477 14.9113 19 15.1403 19 15.6926Z" fill="#38CBAA"/>
</svg>
