<svg width="1680" height="644" viewBox="0 0 1680 644" fill="none" xmlns="http://www.w3.org/2000/svg">
<g clip-path="url(#clip0)">
<rect width="1680" height="10091" transform="translate(0 -4027)" fill="#F4F6FB"/>
<path fill-rule="evenodd" clip-rule="evenodd" d="M1680 5940H0V-1227.08L1680 -2068V5940Z" fill="#FCFDFF"/>
<path opacity="0.25" fill-rule="evenodd" clip-rule="evenodd" d="M960 331C960 397.274 906.274 451 840 451C773.726 451 720 397.274 720 331C720 264.726 773.726 211 840 211C906.274 211 960 264.726 960 331ZM721 331C721 396.722 774.278 450 840 450C905.722 450 959 396.722 959 331C959 265.278 905.722 212 840 212C774.278 212 721 265.278 721 331Z" fill="#657180"/>
<path opacity="0.15" fill-rule="evenodd" clip-rule="evenodd" d="M1060 331C1060 452.503 961.503 551 840 551C718.497 551 620 452.503 620 331C620 209.497 718.497 111 840 111C961.503 111 1060 209.497 1060 331ZM621 331C621 451.95 719.05 550 840 550C960.95 550 1059 451.95 1059 331C1059 210.05 960.95 112 840 112C719.05 112 621 210.05 621 331Z" fill="#657180"/>
<path opacity="0.08" fill-rule="evenodd" clip-rule="evenodd" d="M1160 331C1160 507.731 1016.73 651 840 651C663.269 651 520 507.731 520 331C520 154.269 663.269 11 840 11C1016.73 11 1160 154.269 1160 331ZM521 331C521 507.179 663.821 650 840 650C1016.18 650 1159 507.179 1159 331C1159 154.821 1016.18 12 840 12C663.821 12 521 154.821 521 331Z" fill="#657180"/>
<path fill-rule="evenodd" clip-rule="evenodd" d="M1349.15 163.743C1348.56 163.671 1347.77 163.389 1347.64 164.219C1347.49 165.089 1348.36 165.001 1348.93 165.127C1352.74 165.985 1354.07 167.382 1354.7 171.188C1354.79 171.743 1354.61 172.607 1355.55 172.464C1356.24 172.357 1355.99 171.617 1356.05 171.185C1356.08 167.53 1352.97 164.203 1349.15 163.743Z" fill="white"/>
<path fill-rule="evenodd" clip-rule="evenodd" d="M1349.5 166.731C1349.11 166.741 1348.72 166.784 1348.57 167.21C1348.35 167.848 1348.81 168 1349.28 168.075C1350.85 168.328 1351.67 169.256 1351.83 170.826C1351.87 171.252 1352.14 171.598 1352.55 171.549C1353.12 171.481 1353.17 170.973 1353.15 170.491C1353.18 168.727 1351.2 166.689 1349.5 166.731V166.731Z" fill="white"/>
<path fill-rule="evenodd" clip-rule="evenodd" d="M431.921 163.069C429.288 160.446 425.788 159.001 422.058 159C414.374 159 408.12 165.224 408.117 172.874C408.116 175.319 408.758 177.706 409.978 179.81L408 187L415.391 185.071C417.427 186.176 419.72 186.758 422.053 186.759H422.059C429.742 186.759 435.997 180.535 436 172.885C436.001 169.178 434.553 165.692 431.921 163.069ZM422.059 184.416H422.054C419.975 184.415 417.935 183.859 416.156 182.809L415.733 182.559L411.347 183.704L412.518 179.448L412.242 179.012C411.082 177.176 410.47 175.054 410.471 172.875C410.473 166.516 415.671 161.343 422.063 161.343C425.158 161.345 428.068 162.546 430.255 164.725C432.443 166.905 433.647 169.803 433.646 172.884C433.644 179.243 428.445 184.416 422.059 184.416ZM426.034 174.651C426.354 174.767 428.066 175.606 428.415 175.779C428.483 175.813 428.546 175.844 428.605 175.872C428.848 175.989 429.012 176.068 429.082 176.184C429.169 176.329 429.169 177.023 428.879 177.833C428.589 178.643 427.197 179.382 426.528 179.481C425.928 179.57 425.168 179.608 424.334 179.344C423.828 179.184 423.179 178.971 422.348 178.614C419.083 177.21 416.876 174.061 416.458 173.465C416.429 173.423 416.408 173.394 416.397 173.379L416.394 173.375C416.21 173.13 414.975 171.49 414.975 169.792C414.975 168.196 415.763 167.359 416.126 166.973C416.15 166.947 416.173 166.923 416.194 166.9C416.513 166.553 416.89 166.466 417.123 166.466C417.355 166.466 417.587 166.469 417.79 166.479C417.815 166.48 417.841 166.48 417.868 166.48C418.071 166.478 418.324 166.477 418.574 167.074C418.67 167.304 418.811 167.644 418.959 168.004C419.259 168.73 419.59 169.532 419.648 169.648C419.735 169.821 419.793 170.024 419.677 170.255C419.66 170.29 419.644 170.322 419.628 170.354C419.541 170.531 419.477 170.661 419.329 170.834C419.271 170.901 419.211 170.974 419.151 171.047C419.031 171.192 418.911 171.338 418.806 171.441C418.632 171.614 418.45 171.801 418.654 172.149C418.857 172.496 419.556 173.631 420.591 174.55C421.705 175.538 422.672 175.956 423.163 176.168C423.258 176.209 423.336 176.243 423.393 176.271C423.741 176.444 423.944 176.416 424.147 176.184C424.351 175.953 425.018 175.172 425.251 174.825C425.483 174.478 425.715 174.536 426.034 174.651Z" fill="white"/>
<path d="M1553.64 318.645C1552.78 318.645 1552.94 318.314 1552.63 317.497L1550.11 309.193L1565.74 299.433L1567.58 299.918L1566.05 304.07L1553.64 318.645Z" fill="#C8DAEA"/>
<path d="M1553.64 318.645C1554.31 318.645 1554.59 318.336 1554.97 317.983C1555.54 317.431 1562.92 310.254 1562.92 310.254L1558.39 309.149L1554.19 311.799L1553.64 318.424V318.645Z" fill="#A9C9DD"/>
<path d="M1554.08 311.888L1564.77 319.772C1565.99 320.434 1566.87 320.103 1567.18 318.645L1571.53 298.152C1571.97 296.363 1570.84 295.568 1569.67 296.098L1544.15 305.947C1542.4 306.654 1542.42 307.626 1543.84 308.045L1550.4 310.099L1565.57 300.537C1566.27 300.095 1566.94 300.338 1566.41 300.824L1554.08 311.888Z" fill="url(#paint0_linear)"/>
<path fill-rule="evenodd" clip-rule="evenodd" d="M1273.31 446.208C1273.52 445.497 1273.31 445 1272.32 445H1269.04C1268.2 445 1267.82 445.45 1267.61 445.947C1267.61 445.947 1265.95 450.068 1263.58 452.721C1262.8 453.503 1262.48 453.739 1262.05 453.739C1261.84 453.739 1261.54 453.503 1261.54 452.792V446.208C1261.54 445.355 1261.3 445 1260.6 445H1255.44C1254.93 445 1254.6 445.403 1254.6 445.758C1254.6 446.563 1255.77 446.753 1255.91 448.979V453.858C1255.91 454.924 1255.72 455.113 1255.3 455.113C1254.2 455.113 1251.48 450.992 1249.89 446.255C1249.56 445.379 1249.25 445 1248.41 445H1245.13C1244.19 445 1244 445.45 1244 445.947C1244 446.824 1245.1 451.182 1249.18 456.937C1251.9 460.868 1255.72 463 1259.19 463C1261.28 463 1261.54 462.526 1261.54 461.721V458.737C1261.54 457.789 1261.73 457.6 1262.41 457.6C1262.9 457.6 1263.72 457.837 1265.67 459.732C1267.89 461.982 1268.27 463 1269.51 463H1272.79C1273.73 463 1274.2 462.526 1273.92 461.603C1273.61 460.679 1272.56 459.329 1271.15 457.718C1270.38 456.795 1269.23 455.824 1268.9 455.326C1268.41 454.687 1268.55 454.403 1268.9 453.858C1268.9 453.834 1272.91 448.15 1273.31 446.208V446.208Z" fill="white"/>
<path fill-rule="evenodd" clip-rule="evenodd" d="M107 306.426C107 299.011 113.492 293 121.5 293C129.508 293 136 299.011 136 306.426C136 313.841 129.508 319.852 121.5 319.852C120.054 319.852 118.658 319.655 117.341 319.29L112.404 322V316.881C109.109 314.42 107 310.651 107 306.426ZM119.248 307.142L122.941 311.08L130.866 302.667L123.752 306.605L119.969 302.667L112.043 311.08L119.248 307.142Z" fill="white"/>
<path d="M326.643 465.645C325.781 465.645 325.936 465.314 325.627 464.497L323.109 456.193L338.744 446.433L340.577 446.918L339.054 451.07L326.643 465.645Z" fill="#C8DAEA"/>
<path d="M326.643 465.645C327.305 465.645 327.592 465.336 327.968 464.983C328.542 464.431 335.918 457.254 335.918 457.254L331.39 456.149L327.195 458.799L326.643 465.424V465.645Z" fill="#A9C9DD"/>
<path d="M327.083 458.888L337.772 466.772C338.986 467.434 339.87 467.103 340.179 465.645L344.529 445.152C344.971 443.363 343.845 442.568 342.674 443.098L317.146 452.947C315.401 453.654 315.423 454.626 316.837 455.045L323.396 457.099L338.567 447.537C339.273 447.095 339.936 447.338 339.406 447.824L327.083 458.888Z" fill="url(#paint1_linear)"/>
<path fill-rule="evenodd" clip-rule="evenodd" d="M362 309C363.657 309 365 307.657 365 306C365 304.343 363.657 303 362 303C360.343 303 359 304.343 359 306C359 307.657 360.343 309 362 309Z" fill="#4C68EF"/>
<path fill-rule="evenodd" clip-rule="evenodd" d="M1256 316C1257.66 316 1259 314.657 1259 313C1259 311.343 1257.66 310 1256 310C1254.34 310 1253 311.343 1253 313C1253 314.657 1254.34 316 1256 316Z" fill="#4C68EF"/>
<path fill-rule="evenodd" clip-rule="evenodd" d="M204 191C205.657 191 207 189.657 207 188C207 186.343 205.657 185 204 185C202.343 185 201 186.343 201 188C201 189.657 202.343 191 204 191Z" fill="#4C68EF"/>
<path fill-rule="evenodd" clip-rule="evenodd" d="M1493 220C1494.66 220 1496 218.657 1496 217C1496 215.343 1494.66 214 1493 214C1491.34 214 1490 215.343 1490 217C1490 218.657 1491.34 220 1493 220Z" fill="#4C68EF"/>
<path fill-rule="evenodd" clip-rule="evenodd" d="M119 443C120.657 443 122 441.657 122 440C122 438.343 120.657 437 119 437C117.343 437 116 438.343 116 440C116 441.657 117.343 443 119 443Z" fill="#4C68EF"/>
<path fill-rule="evenodd" clip-rule="evenodd" d="M1447 430C1448.66 430 1450 428.657 1450 427C1450 425.343 1448.66 424 1447 424C1445.34 424 1444 425.343 1444 427C1444 428.657 1445.34 430 1447 430Z" fill="#4C68EF"/>
<path fill-rule="evenodd" clip-rule="evenodd" d="M1495.35 654.497C1498.3 652.993 1499.48 649.38 1497.97 646.427C1496.47 643.475 1492.85 642.301 1489.9 643.805C1486.95 645.31 1485.77 648.923 1487.28 651.875C1488.78 654.828 1492.4 656.002 1495.35 654.497Z" fill="#8AC841"/>
</g>
<defs>
<linearGradient id="paint0_linear" x1="1555.22" y1="309.643" x2="1559.36" y2="319.08" gradientUnits="userSpaceOnUse">
<stop stop-color="#EFF7FC"/>
<stop offset="1" stop-color="white"/>
</linearGradient>
<linearGradient id="paint1_linear" x1="328.217" y1="456.643" x2="332.362" y2="466.08" gradientUnits="userSpaceOnUse">
<stop stop-color="#EFF7FC"/>
<stop offset="1" stop-color="white"/>
</linearGradient>
<clipPath id="clip0">
<rect width="1680" height="10091" fill="white" transform="translate(0 -4027)"/>
</clipPath>
</defs>
</svg>
