<svg width="48" height="48" viewBox="0 0 48 48" fill="none" xmlns="http://www.w3.org/2000/svg">
<g id="bot_constructor">
<path id="Path" d="M43 45H32C31.4477 45 31 44.5523 31 44V41.609C27.272 39.616 26.218 37.672 26.105 37.447C26.0358 37.3082 25.9999 37.1551 26 37V27C26 25.3431 27.3431 24 29 24C30.6569 24 32 25.3431 32 27V31C32 31.5523 31.5523 32 31 32C30.4477 32 30 31.5523 30 31V27C30 26.4477 29.5523 26 29 26C28.4477 26 28 26.4477 28 27V36.716C29.187 38.1869 30.7129 39.348 32.447 40.1C32.7877 40.2702 33.0021 40.6192 33 41V43H42V41C42.0001 40.7348 42.1055 40.4805 42.293 40.293C43.924 38.662 45.633 34.684 46 33.803V29C46 28.4477 45.5523 28 45 28C44.4477 28 44 28.4477 44 29V33C44 33.5523 43.5523 34 43 34C42.4477 34 42 33.5523 42 33V29C42 27.3431 43.3431 26 45 26C46.6569 26 48 27.3431 48 29V34C48 34.1274 47.9759 34.2536 47.929 34.372C47.848 34.572 46.01 39.135 44 41.396V44C44 44.5523 43.5523 45 43 45Z" fill="#5547E5"/>
<path id="Path_2" d="M31 28C30.4477 28 30 27.5523 30 27V18C30 16.3431 31.3431 15 33 15C34.6569 15 36 16.3431 36 18V22C36 22.5523 35.5523 23 35 23C34.4477 23 34 22.5523 34 22V18C34 17.4477 33.5523 17 33 17C32.4477 17 32 17.4477 32 18V27C32 27.5523 31.5523 28 31 28Z" fill="#5547E5"/>
<path id="Path_3" d="M39 27C38.4477 27 38 26.5523 38 26V22C38 21.4477 37.5523 21 37 21C36.4477 21 36 21.4477 36 22V26C36 26.5523 35.5523 27 35 27C34.4477 27 34 26.5523 34 26V22C34 20.3431 35.3431 19 37 19C38.6569 19 40 20.3431 40 22V26C40 26.5523 39.5523 27 39 27Z" fill="#5547E5"/>
<path id="Path_4" d="M43 31C42.4477 31 42 30.5523 42 30V26C42 25.4477 41.5523 25 41 25C40.4477 25 40 25.4477 40 26V30C40 30.5523 39.5523 31 39 31C38.4477 31 38 30.5523 38 30V26C38 24.3431 39.3431 23 41 23C42.6569 23 44 24.3431 44 26V30C44 30.5523 43.5523 31 43 31Z" fill="#5547E5"/>
<path id="Path_5" d="M45 48C44.4477 48 44 47.5523 44 47V45H30V47C30 47.5523 29.5523 48 29 48C28.4477 48 28 47.5523 28 47V45C28 43.8954 28.8954 43 30 43H44C45.1046 43 46 43.8954 46 45V47C46 47.5523 45.5523 48 45 48Z" fill="#5547E5"/>
<path id="Shape" fill-rule="evenodd" clip-rule="evenodd" d="M0 5C0 7.76142 2.23858 10 5 10C7.76005 9.99669 9.99669 7.76005 10 5C10 2.23858 7.76142 0 5 0C2.23858 0 0 2.23858 0 5ZM2 5C2 3.34315 3.34315 2 5 2C6.65685 2 8 3.34315 8 5C8 6.65685 6.65685 8 5 8C3.34315 8 2 6.65685 2 5Z" fill="#5547E5"/>
<path id="Shape_2" fill-rule="evenodd" clip-rule="evenodd" d="M13 5C13 7.76142 15.2386 10 18 10C20.7601 9.99669 22.9967 7.76005 23 5C23 2.23858 20.7614 0 18 0C15.2386 0 13 2.23858 13 5ZM15 5C15 3.34315 16.3431 2 18 2C19.6569 2 21 3.34315 21 5C21 6.65685 19.6569 8 18 8C16.3431 8 15 6.65685 15 5Z" fill="#5547E5"/>
<path id="Shape_3" fill-rule="evenodd" clip-rule="evenodd" d="M27 5C27 7.76142 29.2386 10 32 10C34.7601 9.99669 36.9967 7.76005 37 5C37 2.23858 34.7614 0 32 0C29.2386 0 27 2.23858 27 5ZM29 5C29 3.34315 30.3431 2 32 2C33.6569 2 35 3.34315 35 5C35 6.65685 33.6569 8 32 8C30.3431 8 29 6.65685 29 5Z" fill="#5547E5"/>
<path id="Shape_4" fill-rule="evenodd" clip-rule="evenodd" d="M0 19C0 21.7614 2.23858 24 5 24C7.76005 23.9967 9.99669 21.7601 10 19C10 16.2386 7.76142 14 5 14C2.23858 14 0 16.2386 0 19ZM2 19C2 17.3431 3.34315 16 5 16C6.65685 16 8 17.3431 8 19C8 20.6569 6.65685 22 5 22C3.34315 22 2 20.6569 2 19Z" fill="#5547E5"/>
<path id="Shape_5" fill-rule="evenodd" clip-rule="evenodd" d="M13 19C13 21.7614 15.2386 24 18 24C20.7601 23.9967 22.9967 21.7601 23 19C23 16.2386 20.7614 14 18 14C15.2386 14 13 16.2386 13 19ZM15 19C15 17.3431 16.3431 16 18 16C19.6569 16 21 17.3431 21 19C21 20.6569 19.6569 22 18 22C16.3431 22 15 20.6569 15 19Z" fill="#5547E5"/>
<path id="Shape_6" fill-rule="evenodd" clip-rule="evenodd" d="M0 33C0 35.7614 2.23858 38 5 38C7.76005 37.9967 9.99669 35.7601 10 33C10 30.2386 7.76142 28 5 28C2.23858 28 0 30.2386 0 33ZM2 33C2 31.3431 3.34315 30 5 30C6.65685 30 8 31.3431 8 33C8 34.6569 6.65685 36 5 36C3.34315 36 2 34.6569 2 33Z" fill="#5547E5"/>
<path id="Shape_7" fill-rule="evenodd" clip-rule="evenodd" d="M13 33C13 35.7614 15.2386 38 18 38C20.7601 37.9967 22.9967 35.7601 23 33C23 30.2386 20.7614 28 18 28C15.2386 28 13 30.2386 13 33ZM15 33C15 31.3431 16.3431 30 18 30C19.6569 30 21 31.3431 21 33C21 34.6569 19.6569 36 18 36C16.3431 36 15 34.6569 15 33Z" fill="#5547E5"/>
<path id="Path_6" d="M14 6H9C8.44772 6 8 5.55228 8 5C8 4.44772 8.44772 4 9 4H14C14.5523 4 15 4.44772 15 5C15 5.55228 14.5523 6 14 6Z" fill="#5547E5"/>
<path id="Path_7" d="M18 16C17.4477 16 17 15.5523 17 15V9C17 8.44772 17.4477 8 18 8C18.5523 8 19 8.44772 19 9V15C19 15.5523 18.5523 16 18 16Z" fill="#5547E5"/>
<path id="Path_8" d="M27 20H22C21.4477 20 21 19.5523 21 19C21 18.4477 21.4477 18 22 18H27C27.5523 18 28 18.4477 28 19C28 19.5523 27.5523 20 27 20Z" fill="#5547E5"/>
</g>
</svg>
