<svg width="355" height="834" viewBox="0 0 355 834" fill="none" xmlns="http://www.w3.org/2000/svg">
<g filter="url(#filter0_d)">
<rect x="80" y="282.395" width="600" height="450" rx="32" transform="rotate(-27 80 282.395)" fill="white"/>
</g>
<path fill-rule="evenodd" clip-rule="evenodd" d="M131.144 303.473C134.096 301.969 135.27 298.356 133.766 295.403C132.261 292.451 128.648 291.277 125.696 292.781C122.743 294.285 121.569 297.898 123.074 300.851C124.578 303.803 128.191 304.977 131.144 303.473Z" fill="#F34056"/>
<path fill-rule="evenodd" clip-rule="evenodd" d="M150.745 293.486C153.698 291.981 154.872 288.368 153.367 285.416C151.863 282.463 148.25 281.289 145.297 282.794C142.345 284.298 141.171 287.911 142.675 290.864C144.18 293.816 147.793 294.99 150.745 293.486Z" fill="#ECDE2E"/>
<path fill-rule="evenodd" clip-rule="evenodd" d="M170.349 283.497C173.301 281.993 174.475 278.38 172.971 275.427C171.466 272.475 167.853 271.301 164.901 272.805C161.948 274.31 160.774 277.923 162.279 280.875C163.783 283.828 167.396 285.002 170.349 283.497Z" fill="#8AC841"/>
<defs>
<filter id="filter0_d" x="0" y="0" width="898.9" height="833.347" filterUnits="userSpaceOnUse" color-interpolation-filters="sRGB">
<feFlood flood-opacity="0" result="BackgroundImageFix"/>
<feColorMatrix in="SourceAlpha" type="matrix" values="0 0 0 0 0 0 0 0 0 0 0 0 0 0 0 0 0 0 127 0"/>
<feOffset dy="70"/>
<feGaussianBlur stdDeviation="40"/>
<feColorMatrix type="matrix" values="0 0 0 0 0.156863 0 0 0 0 0.0980392 0 0 0 0 0.501961 0 0 0 0.2 0"/>
<feBlend mode="normal" in2="BackgroundImageFix" result="effect1_dropShadow"/>
<feBlend mode="normal" in="SourceGraphic" in2="effect1_dropShadow" result="shape"/>
</filter>
</defs>
</svg>
