<svg width="48" height="48" viewBox="0 0 48 48" fill="none" xmlns="http://www.w3.org/2000/svg">
<g id="chat_center">
<path id="Path" d="M44 48H30C29.4477 48 29 47.5523 29 47C29 46.4477 29.4477 46 30 46H44C45.1046 46 46 45.1046 46 44V4C46 2.89543 45.1046 2 44 2H4C2.89543 2 2 2.89543 2 4V44C2 45.1046 2.89543 46 4 46H18C18.5523 46 19 46.4477 19 47C19 47.5523 18.5523 48 18 48H4C1.79086 48 0 46.2091 0 44V4C0 1.79086 1.79086 0 4 0H44C46.2091 0 48 1.79086 48 4V44C48 46.2091 46.2091 48 44 48Z" fill="#5547E5"/>
<path id="Path_2" d="M7 6H6C5.44772 6 5 5.55228 5 5C5 4.44772 5.44772 4 6 4H7C7.55228 4 8 4.44772 8 5C8 5.55228 7.55228 6 7 6Z" fill="#5547E5"/>
<path id="Path_3" d="M12 6H11C10.4477 6 10 5.55228 10 5C10 4.44772 10.4477 4 11 4H12C12.5523 4 13 4.44772 13 5C13 5.55228 12.5523 6 12 6Z" fill="#5547E5"/>
<path id="Path_4" d="M42 6H41C40.4477 6 40 5.55228 40 5C40 4.44772 40.4477 4 41 4H42C42.5523 4 43 4.44772 43 5C43 5.55228 42.5523 6 42 6Z" fill="#5547E5"/>
<path id="Path_5" d="M43 10H5C4.44772 10 4 9.55228 4 9C4 8.44772 4.44772 8 5 8H43C43.5523 8 44 8.44772 44 9C44 9.55228 43.5523 10 43 10Z" fill="#5547E5"/>
<path id="Shape" fill-rule="evenodd" clip-rule="evenodd" d="M23.293 44.707C23.4805 44.8946 23.7348 44.9999 24 45C24.2652 44.9999 24.5195 44.8946 24.707 44.707L28.414 41H39C41.2091 41 43 39.2091 43 37V19C43 16.7909 41.2091 15 39 15H9C6.79086 15 5 16.7909 5 19V37C5 39.2091 6.79086 41 9 41H19.586L23.293 44.707ZM7 19C7 17.8954 7.89543 17 9 17H39C40.1046 17 41 17.8954 41 19V37C41 38.1046 40.1046 39 39 39H28C27.7348 39.0001 27.4805 39.1054 27.293 39.293L24 42.586L20.707 39.293C20.5195 39.1054 20.2652 39.0001 20 39H9C7.89543 39 7 38.1046 7 37V19Z" fill="#5547E5"/>
<path id="Path_6" d="M35 24H13C12.4477 24 12 23.5523 12 23C12 22.4477 12.4477 22 13 22H35C35.5523 22 36 22.4477 36 23C36 23.5523 35.5523 24 35 24Z" fill="#5547E5"/>
<path id="Path_7" d="M35 29H13C12.4477 29 12 28.5523 12 28C12 27.4477 12.4477 27 13 27H35C35.5523 27 36 27.4477 36 28C36 28.5523 35.5523 29 35 29Z" fill="#5547E5"/>
<path id="Path_8" d="M23 34H13C12.4477 34 12 33.5523 12 33C12 32.4477 12.4477 32 13 32H23C23.5523 32 24 32.4477 24 33C24 33.5523 23.5523 34 23 34Z" fill="#5547E5"/>
</g>
</svg>
