<svg width="42" height="61" viewBox="0 0 42 61" fill="none" xmlns="http://www.w3.org/2000/svg">
<path fill-rule="evenodd" clip-rule="evenodd" d="M5.99982 25.9745C5.44753 25.699 4.99982 25.028 4.99982 24.4757V2.47571C4.99982 0.266568 6.79068 -0.630957 8.99981 0.471028L32.9998 12.443C35.209 13.5449 36.9998 16.2291 36.9998 18.4383V26.0243L41.7068 33.0793C41.9927 33.5079 42.0782 33.9806 41.9235 34.277C41.7687 34.5734 41.4042 34.6352 40.9998 34.4336L35.9998 31.9394C35.4475 31.6639 34.9998 30.9929 34.9998 30.4406C34.9998 29.8883 35.4475 29.6639 35.9998 29.9394L38.5858 31.2294L35.2928 26.2938C35.1053 26.0127 34.9999 25.7058 34.9998 25.4406V17.4406C34.9998 16.336 34.1044 14.9939 32.9998 14.443L8.99981 2.47103C7.89525 1.92004 6.99982 2.3688 6.99982 3.47337V25.4734C6.99982 26.0257 6.5521 26.25 5.99982 25.9745ZM10.9998 9.46869L30.9998 19.4453C31.5521 19.7208 31.9998 19.4964 31.9998 18.9441C31.9998 18.3918 31.5521 17.7208 30.9998 17.4453L10.9998 7.46869C10.4475 7.19319 9.99982 7.41757 9.99982 7.96986C9.99982 8.52214 10.4475 9.19319 10.9998 9.46869ZM10.9998 43.4687L30.9998 53.4453C31.5521 53.7208 31.9998 53.4964 31.9998 52.9441C31.9998 52.3918 31.5521 51.7208 30.9998 51.4453L10.9998 41.4687C10.4475 41.1932 9.99982 41.4176 9.99982 41.9699C9.99982 42.5221 10.4475 43.1932 10.9998 43.4687ZM8.99982 48.471L32.9998 60.443C35.209 61.5449 36.9998 60.6474 36.9998 58.4383V36.4383C36.9998 35.886 36.5521 35.2149 35.9998 34.9394C35.4475 34.6639 34.9998 34.8883 34.9998 35.4406V57.4406C34.9998 58.5452 34.1044 58.9939 32.9998 58.443L8.99982 46.471C7.89525 45.92 6.99982 44.5779 6.99982 43.4734V35.4734C6.99976 35.2081 6.89437 34.9013 6.70682 34.6202L3.41382 29.6846L5.99982 30.9745C6.5521 31.25 6.99982 31.0257 6.99982 30.4734C6.99982 29.9211 6.5521 29.25 5.99982 28.9745L0.999816 26.4804C0.59542 26.2787 0.230882 26.3405 0.0761377 26.637C-0.0786062 26.9334 0.00690776 27.4061 0.292816 27.8347L4.99982 34.8897V42.4757C4.99982 44.6848 6.79068 47.369 8.99982 48.471ZM25.9998 31.9511L13.9998 25.9652C12.343 25.1387 10.9998 23.1255 10.9998 21.4687V15.4687C10.9998 13.8118 12.343 13.1387 13.9998 13.9652L25.9998 19.9511C27.6567 20.7776 28.9998 22.7908 28.9998 24.4476V25.0336L30.7068 27.5921C31.0972 28.1774 31.0972 28.8104 30.7068 29.0061L28.9998 29.8616V30.4476C28.9998 32.1045 27.6567 32.7776 25.9998 31.9511ZM12.9998 16.4663C12.9998 15.9141 13.4475 15.6897 13.9998 15.9652L25.9998 21.9511C26.5521 22.2266 26.9998 22.8977 26.9998 23.45V24.45C26.9999 24.7152 27.1053 25.0221 27.2928 25.3031L28.5858 27.2411L27.2928 27.8891C27.1053 27.9831 26.9999 28.1848 26.9998 28.45V29.45C26.9998 30.0023 26.5521 30.2266 25.9998 29.9511L13.9998 23.9652C13.4475 23.6897 12.9998 23.0186 12.9998 22.4663V16.4663ZM27.9998 46.9488L15.9998 40.9628C14.343 40.1363 12.9998 38.1232 12.9998 36.4663V35.8803L11.2928 33.3218C10.9024 32.7366 10.9024 32.1036 11.2928 31.9078L12.9998 31.0523V30.4663C12.9998 28.8095 14.343 28.1363 15.9998 28.9628L27.9998 34.9488C29.6567 35.7753 30.9998 37.7884 30.9998 39.4453V45.4453C30.9998 47.1021 29.6567 47.7753 27.9998 46.9488ZM14.7068 35.6109L13.4138 33.6729L14.7068 33.0248C14.8944 32.9309 14.9998 32.7292 14.9998 32.464V31.464C14.9998 30.9117 15.4475 30.6873 15.9998 30.9628L27.9998 36.9488C28.5521 37.2243 28.9998 37.8953 28.9998 38.4476V44.4476C28.9998 44.9999 28.5521 45.2243 27.9998 44.9488L15.9998 38.9628C15.4475 38.6873 14.9998 38.0163 14.9998 37.464V36.464C14.9998 36.1988 14.8944 35.8919 14.7068 35.6109Z" fill="#38CBAA"/>
</svg>
