<svg width="103" height="103" viewBox="0 0 103 103" fill="none" xmlns="http://www.w3.org/2000/svg">
<g id="facebook">
<g id="Oval" filter="url(#filter0_d)">
<path fill-rule="evenodd" clip-rule="evenodd" d="M51.5 73C68.897 73 83 58.897 83 41.5C83 24.103 68.897 10 51.5 10C34.103 10 20 24.103 20 41.5C20 58.897 34.103 73 51.5 73Z" fill="#0084FF"/>
</g>
<g id="facebook_2">
<path id="Shape" fill-rule="evenodd" clip-rule="evenodd" d="M37 41.4259C37 34.011 43.4919 28 51.5 28C59.5081 28 66 34.011 66 41.4259C66 48.8409 59.5081 54.8519 51.5 54.8519C50.0543 54.8519 48.6585 54.655 47.3408 54.2904L42.4037 57V51.8809C39.1085 49.4198 37 45.6511 37 41.4259ZM49.2484 42.142L52.941 46.0802L60.8665 37.6667L53.7516 41.6049L49.9689 37.6667L42.0435 46.0802L49.2484 42.142Z" fill="white"/>
</g>
</g>
<defs>
<filter id="filter0_d" x="0" y="0" width="103" height="103" filterUnits="userSpaceOnUse" color-interpolation-filters="sRGB">
<feFlood flood-opacity="0" result="BackgroundImageFix"/>
<feColorMatrix in="SourceAlpha" type="matrix" values="0 0 0 0 0 0 0 0 0 0 0 0 0 0 0 0 0 0 127 0"/>
<feOffset dy="10"/>
<feGaussianBlur stdDeviation="10"/>
<feColorMatrix type="matrix" values="0 0 0 0 0 0 0 0 0 0.517647 0 0 0 0 1 0 0 0 0.4 0"/>
<feBlend mode="normal" in2="BackgroundImageFix" result="effect1_dropShadow"/>
<feBlend mode="normal" in="SourceGraphic" in2="effect1_dropShadow" result="shape"/>
</filter>
</defs>
</svg>
