<svg width="64" height="64" viewBox="0 0 64 64" fill="none" xmlns="http://www.w3.org/2000/svg">
<g id="icon_sherlock_platform">
<path id="Oval" opacity="0.1" fill-rule="evenodd" clip-rule="evenodd" d="M32 64C49.6731 64 64 49.6731 64 32C64 14.3269 49.6731 0 32 0C14.3269 0 0 14.3269 0 32C0 49.6731 14.3269 64 32 64Z" fill="#50E3C2"/>
<path id="Shape" fill-rule="evenodd" clip-rule="evenodd" d="M29 23H25C23.9 23 23 23.9 23 25V29C23 30.1046 23.8954 31 25 31H29C30.1046 31 31 30.1046 31 29V25C31 23.8954 30.1046 23 29 23ZM25 29V25H29V29H25ZM35 23H39C40.1046 23 41 23.8954 41 25V29C41 30.1046 40.1046 31 39 31H35C33.8954 31 33 30.1046 33 29V25C33 23.9 33.9 23 35 23ZM35 29V25H39V29H35ZM25 33H29C30.1046 33 31 33.8954 31 35V39C31 40.1046 30.1046 41 29 41H25C23.8954 41 23 40.1046 23 39V35C23 33.9 23.9 33 25 33ZM25 39V35H29V39H25ZM35 33H39C40.1046 33 41 33.8954 41 35V39C41 40.1046 40.1046 41 39 41H35C33.8954 41 33 40.1046 33 39V35C33 33.9 33.9 33 35 33ZM35 39V35H39V39H35Z" fill="#38CBAA"/>
</g>
</svg>
