<svg width="64" height="64" viewBox="0 0 64 64" fill="none" xmlns="http://www.w3.org/2000/svg">
<g id="icon_invest">
<path id="Oval" opacity="0.1" fill-rule="evenodd" clip-rule="evenodd" d="M32 64C49.6731 64 64 49.6731 64 32C64 14.3269 49.6731 0 32 0C14.3269 0 0 14.3269 0 32C0 49.6731 14.3269 64 32 64Z" fill="#F5A623"/>
<path id="Path" fill-rule="evenodd" clip-rule="evenodd" d="M31.8465 44.2275V44.4346C31.8465 44.5223 31.8434 44.6092 31.8371 44.6952C31.9624 45.436 32.6126 46 33.3966 46H37.9802C38.8539 46 39.5614 45.2995 39.5614 44.4346V43.3261C39.5676 43.0703 39.666 41.8582 40.8289 40.8105C40.8566 40.7862 40.8858 40.7618 40.915 40.7374C40.9442 40.7131 40.9735 40.6887 41.0011 40.6643L41.0134 40.6522C41.0319 40.64 41.0442 40.6278 41.0565 40.6095C42.5885 39.2513 43.7452 37.5945 44.4158 35.7855H44.7788C46.0032 35.7855 46.9999 34.7988 46.9999 33.5867V30.194C47.0122 28.988 46.0155 28.0074 44.7911 28.0074H44.3543C43.6283 26.1618 42.4101 24.4868 40.7858 23.1286C40.5582 22.3124 40.7304 21.4292 41.3149 20.5156C41.641 19.9978 41.6595 19.3765 41.3641 18.8466C41.0688 18.3228 40.5151 18 39.9183 18C39.8506 18 39.7768 18.0061 39.7091 18.0122C37.4634 18.2863 36.0975 19.2791 35.2793 20.2232C34.3182 19.9259 33.1049 19.8317 32.8304 19.8104L32.8121 19.809C32.2337 19.7481 31.6431 19.7116 31.0586 19.7116C27.324 19.7116 23.8109 20.9785 21.1591 23.2687C18.4766 25.5893 17 28.6896 17 31.9909C17 32.8436 17.0984 33.6963 17.3015 34.5308C17.3043 34.5392 17.3058 34.5475 17.3072 34.5553C17.3089 34.5645 17.3104 34.5729 17.3138 34.5795L17.3199 34.61C17.5291 35.4505 17.8429 36.2728 18.2428 37.0585C18.9134 38.4838 19.7133 39.6776 20.6116 40.5973C21.8544 41.8643 22.0697 43.4723 22.1005 44.1179V44.4773C22.1005 44.5443 22.1066 44.6052 22.1189 44.6661C22.2358 45.4214 22.8942 46 23.6817 46H28.2653C29.013 46 29.6389 45.4871 29.804 44.7971L29.819 44.5965C29.8205 44.6295 29.8224 44.6624 29.8248 44.6952C29.8391 44.6105 29.8465 44.5234 29.8465 44.4346V44.2519H29.8447L29.8465 44.2275H31.8465ZM29.819 44.5965L29.8447 44.2519H29.8154V44.4346C29.8154 44.4889 29.8166 44.5428 29.819 44.5965ZM36.7906 21.5331L35.9354 22.5197L34.6882 22.1338C34.5548 22.0926 34.3997 22.053 34.2276 22.0161C33.7005 21.9033 33.2211 21.8471 32.6026 21.798C32.0622 21.7411 31.5454 21.7116 31.0586 21.7116C27.8012 21.7116 24.7522 22.8082 22.4676 24.7812C20.2168 26.7284 19 29.281 19 31.9909C19 32.6353 19.0686 33.2712 19.2054 33.8885L19.2207 33.9188L19.271 34.1679C19.4403 34.834 19.6945 35.5016 20.0525 36.207C20.6318 37.4382 21.3077 38.4477 22.0393 39.1968C23.4074 40.5914 23.993 42.2924 24.0942 44H27.8465V42.0725L29.9956 42.2331C30.5534 42.2748 31.1301 42.2815 31.7229 42.254L33.8154 42.1572V44H37.5617L37.562 43.278C37.5925 42.0121 38.1273 40.5525 39.5076 39.3091L39.5427 39.2788L39.7297 39.113C41.0229 37.9665 41.9874 36.5822 42.5405 35.0903L43.0242 33.7855H44.7788C44.9031 33.7855 44.9999 33.6897 44.9999 33.5867L45 30.1736C45.0008 30.0923 44.9149 30.0074 44.7911 30.0074H42.9919L42.4931 28.7395C41.8883 27.202 40.8668 25.8035 39.5028 24.6628L39.0262 24.2643L38.8593 23.6659C38.5309 22.4885 38.682 21.2749 39.2453 20.12C38.1561 20.3705 37.3707 20.8639 36.7906 21.5331ZM39.6841 39.1677L39.9118 38.9829C39.8303 39.0367 39.7529 39.0973 39.6806 39.1637L39.6841 39.1677ZM31.8154 44.4346V44.2519L31.8354 44.6845C31.8222 44.6032 31.8154 44.5197 31.8154 44.4346ZM31.8154 44.2519C31.2901 44.2762 30.7647 44.2772 30.2425 44.2519H31.8154Z" fill="#F6B74F"/>
</g>
</svg>
