<?xml version="1.0" encoding="UTF-8"?>
<svg width="852px" height="670px" viewBox="0 0 852 670" version="1.1" xmlns="http://www.w3.org/2000/svg" xmlns:xlink="http://www.w3.org/1999/xlink">
    <!-- Generator: Sketch 54.1 (76490) - https://sketchapp.com -->
    <title>illustration_mainpage</title>
    <desc>Created with Sketch.</desc>
    <defs>
        <linearGradient x1="-0.003684573%" y1="50.0231753%" x2="99.9581267%" y2="50.0231753%" id="linearGradient-1">
            <stop stop-color="#DFE0FF" offset="0%"></stop>
            <stop stop-color="#9782E8" offset="35.75973%"></stop>
            <stop stop-color="#5F45D1" offset="100%"></stop>
        </linearGradient>
        <path d="M581.6,118.4 L555.2,123 L392,28.6 C383.8,23.8 369.6,24.4 360,30 L47.8,210.2 L1,218.2 L1,234.8 C1,237.8 2.8,240.8 6.6,242.8 L190.8,349.2 C199,354 213.2,353.4 222.8,347.8 L574,145 C579,142 581.8,138.4 581.8,134.8 L581.8,118.4 L581.6,118.4 Z" id="path-2"></path>
        <filter x="-16.8%" y="-25.2%" width="133.6%" height="159.6%" filterUnits="objectBoundingBox" id="filter-3">
            <feOffset dx="0" dy="15" in="SourceAlpha" result="shadowOffsetOuter1"></feOffset>
            <feGaussianBlur stdDeviation="30" in="shadowOffsetOuter1" result="shadowBlurOuter1"></feGaussianBlur>
            <feColorMatrix values="0 0 0 0 0.509803922   0 0 0 0 0.419607843   0 0 0 0 0.878431373  0 0 0 0.6 0" type="matrix" in="shadowBlurOuter1"></feColorMatrix>
        </filter>
        <radialGradient cx="31.0011266%" cy="21.3100388%" fx="31.0011266%" fy="21.3100388%" r="114.03227%" gradientTransform="translate(0.310011,0.213100),scale(0.577190,1.000000),translate(-0.310011,-0.213100)" id="radialGradient-4">
            <stop stop-color="#6839CF" offset="0%"></stop>
            <stop stop-color="#10084E" offset="84.58%"></stop>
            <stop stop-color="#01044F" offset="100%"></stop>
        </radialGradient>
        <linearGradient x1="-0.0805970149%" y1="50.24558%" x2="100.009254%" y2="50.24558%" id="linearGradient-5">
            <stop stop-color="#7D72D8" offset="0%"></stop>
            <stop stop-color="#968DE3" offset="19.0960106%"></stop>
            <stop stop-color="#BBB3FF" offset="46.755976%"></stop>
            <stop stop-color="#E3E0FF" offset="79.292429%"></stop>
            <stop stop-color="#DAD6FF" offset="100%"></stop>
        </linearGradient>
        <linearGradient x1="-0.0201081143%" y1="66.9036879%" x2="99.9930937%" y2="18.8221944%" id="linearGradient-6">
            <stop stop-color="#BBB3FF" offset="0%"></stop>
            <stop stop-color="#FBFCFF" offset="100%"></stop>
        </linearGradient>
    </defs>
    <g id="Main" stroke="none" stroke-width="1" fill="none" fill-rule="evenodd">
        <g id="Sherlock_MainPage" transform="translate(-800.000000, -243.000000)">
            <g id="00" transform="translate(-565.000000, -311.000000)">
                <g id="illustration_mainpage" transform="translate(1365.000000, 554.000000)">
                    <path d="M416.4,614.6 C411.2,614.6 406,613.6 402.4,611.4 L218.2,505 C214.6,502.8 212.4,500 212.4,496.6 C212.4,492.6 215.4,488.8 220.4,485.8 L571.6,283 C581.2,277.4 595.6,276.8 604,281.6 L788.2,388 C791.8,390.2 794,393 794,396.4 C794,400.4 791,404.2 786,407.2 L434.8,610 C429.6,613 422.8,614.6 416.4,614.6 Z M416.4,611.6 C422.441469,611.6 428.686603,610.063499 433.299808,607.402035 L784.456513,404.627521 C788.767017,402.041219 791,399.077441 791,396.4 C791,394.330204 789.601506,392.372313 786.699449,390.597758 L602.511583,284.204729 C595.070058,279.952429 581.806632,280.519243 573.100192,285.597965 L221.943487,488.372479 C217.632983,490.958781 215.4,493.922559 215.4,496.6 C215.4,498.669796 216.798494,500.627687 219.700551,502.402242 L403.96435,608.840154 C406.856805,610.607766 411.392733,611.6 416.4,611.6 Z" id="Path" fill="#6031CD" fill-rule="nonzero" opacity="0.15"></path>
                    <g id="phone" transform="translate(212.000000, 229.000000)" fill-rule="nonzero">
                        <g id="Path">
                            <use fill="black" fill-opacity="1" filter="url(#filter-3)" xlink:href="#path-2"></use>
                            <use fill="url(#linearGradient-1)" xlink:href="#path-2"></use>
                        </g>
                        <path d="M190.6,332.6 L6.4,226.2 C-1.8,221.4 -0.8,213.2 8.6,207.8 L360,5 C369.4,-0.4 383.8,-1 392,3.6 L576.2,110 C584.4,114.8 583.4,123 574,128.4 L222.6,331.2 C213.2,336.8 198.8,337.4 190.6,332.6 Z" id="Path" fill="#24126A"></path>
                        <path d="M573.8,128.6 L222.6,331.2 C213.2,336.6 198.8,337.2 190.6,332.6 L6.4,226.2 C3.2,224.4 1.4,221.8 1,219.2 C0.4,222.6 2.2,226 6.4,228.4 L190.6,334.8 C198.8,339.6 213,339 222.6,333.4 L573.8,130.6 C579.4,127.4 582,123 581.6,119.2 C581,122.4 578.4,125.8 573.8,128.6 Z" id="Path" fill="#FFFFFF"></path>
                        <path d="M191,323.8 L13.4,221.2 C5.4,216.6 6.4,208.6 15.6,203.4 L360.2,4.4 C369.4,-0.8 383.2,-1.4 391.2,3.2 L568.8,105.8 C576.8,110.4 575.8,118.4 566.6,123.6 L222,322.6 C212.8,327.8 199,328.4 191,323.8 Z" id="Path" fill="url(#radialGradient-4)"></path>
                    </g>
                    <g id="Keyboard01_shadows" opacity="0.4" transform="translate(297.000000, 421.000000)" fill="#000000" fill-rule="nonzero">
                        <g id="Group" transform="translate(36.000000, 0.000000)" opacity="0.2">
                            <path d="M10.4,13.8 L24,6 C24.8,5.6 24.8,4.8 23.8,4.2 L18,0.8 C17,0.2 15.6,0.2 14.8,0.6 L1.2,8.4 C0.4,8.8 0.4,9.6 1.4,10.2 L7.2,13.6 C8.2,14.2 9.6,14.2 10.4,13.8 Z" id="Path"></path>
                            <path d="M25.4,22.6 L39,14.8 C39.8,14.4 39.8,13.6 38.8,13 L33,9.6 C32,9 30.6,9 29.8,9.4 L16.2,17.2 C15.4,17.6 15.4,18.4 16.4,19 L22.2,22.4 C23.2,23 24.6,23 25.4,22.6 Z" id="Path"></path>
                            <path d="M40.4,31.4 L54,23.6 C54.8,23.2 54.8,22.4 53.8,21.8 L48,18.4 C47,17.8 45.6,17.8 44.8,18.2 L31.2,26 C30.4,26.4 30.4,27.2 31.4,27.8 L37.2,31.2 C38.2,31.8 39.6,32 40.4,31.4 Z" id="Path"></path>
                            <path d="M55.6,40.2 L69.2,32.4 C70,32 70,31.2 69,30.6 L63.2,27.2 C62.2,26.6 60.8,26.6 60,27 L46.4,34.8 C45.6,35.2 45.6,36 46.6,36.6 L52.4,40 C53.4,40.6 54.8,40.8 55.6,40.2 Z" id="Path"></path>
                            <path d="M70.6,49 L84.2,41.2 C85,40.8 85,40 84,39.4 L78.2,36 C77.2,35.4 75.8,35.4 75,35.8 L61.4,43.6 C60.6,44 60.6,44.8 61.6,45.4 L67.4,48.8 C68.4,49.4 69.8,49.6 70.6,49 Z" id="Path"></path>
                            <path d="M85.6,57.8 L99.2,50 C100,49.6 100,48.8 99,48.2 L93.2,44.8 C92.2,44.2 90.8,44.2 90,44.6 L76.4,52.4 C75.6,52.8 75.6,53.6 76.6,54.2 L82.4,57.6 C83.4,58.2 84.8,58.4 85.6,57.8 Z" id="Path"></path>
                            <path d="M100.8,66.6 L114.4,58.8 C115.2,58.4 115.2,57.6 114.2,57 L108.4,53.6 C107.4,53 106,53 105.2,53.4 L91.6,61.2 C90.8,61.6 90.8,62.4 91.8,63 L97.6,66.4 C98.6,67 100,67.2 100.8,66.6 Z" id="Path"></path>
                            <path d="M115.8,75.4 L129.4,67.6 C130.2,67.2 130.2,66.4 129.2,65.8 L123.4,62.4 C122.4,61.8 121,61.8 120.2,62.2 L106.6,70 C105.8,70.4 105.8,71.2 106.8,71.8 L112.6,75.2 C113.6,75.8 115,76 115.8,75.4 Z" id="Path"></path>
                        </g>
                        <g id="Group" transform="translate(12.000000, 15.000000)" opacity="0.2">
                            <path d="M10.4,14 L24,6.2 C24.8,5.8 24.8,5 23.8,4.4 L18,1 C17,0.4 15.6,0.4 14.8,0.8 L1.2,8.6 C0.4,9 0.4,9.8 1.4,10.4 L7.2,13.8 C8.2,14.4 9.6,14.4 10.4,14 Z" id="Path"></path>
                            <path d="M25.6,22.8 L39.2,15 C40,14.6 40,13.8 39,13.2 L33.2,9.8 C32.2,9.2 30.8,9.2 30,9.6 L16.4,17.4 C15.6,17.8 15.6,18.6 16.6,19.2 L22.4,22.6 C23.4,23.2 24.8,23.2 25.6,22.8 Z" id="Path"></path>
                            <path d="M40.6,31.6 L54.2,23.8 C55,23.4 55,22.6 54,22 L48.2,18.6 C47.2,18 45.8,18 45,18.4 L31.4,26.2 C30.6,26.6 30.6,27.4 31.6,28 L37.4,31.4 C38.4,32 39.8,32 40.6,31.6 Z" id="Path"></path>
                            <path d="M55.6,40.4 L69.2,32.6 C70,32.2 70,31.4 69,30.8 L63.2,27.4 C62.2,26.8 60.8,26.8 60,27.2 L46.4,35 C45.6,35.4 45.6,36.2 46.6,36.8 L52.4,40.2 C53.4,40.8 54.8,40.8 55.6,40.4 Z" id="Path"></path>
                            <path d="M70.8,49.2 L84.4,41.4 C85.2,41 85.2,40.2 84.2,39.6 L78.4,36.2 C77.4,35.6 76,35.6 75.2,36 L61.6,43.8 C60.8,44.2 60.8,45 61.8,45.6 L67.6,49 C68.6,49.6 70,49.6 70.8,49.2 Z" id="Path"></path>
                            <path d="M85.8,58 L99.4,50.2 C100.2,49.8 100.2,49 99.2,48.4 L93.4,45 C92.4,44.4 91,44.4 90.2,44.8 L76.6,52.6 C75.8,53 75.8,53.8 76.8,54.4 L82.6,57.8 C83.6,58.4 85,58.4 85.8,58 Z" id="Path"></path>
                            <path d="M100.8,66.8 L114.4,59 C115.2,58.6 115.2,57.8 114.2,57.2 L108.4,53.8 C107.4,53.2 106,53.2 105.2,53.6 L91.6,61.4 C90.8,61.8 90.8,62.6 91.8,63.2 L97.6,66.6 C98.6,67.2 100,67.2 100.8,66.8 Z" id="Path"></path>
                            <path d="M116,75.6 L129.6,67.8 C130.4,67.4 130.4,66.6 129.4,66 L123.6,62.6 C122.6,62 121.2,62 120.4,62.4 L106.8,70.2 C106,70.6 106,71.4 107,72 L112.8,75.4 C113.8,76 115.2,76 116,75.6 Z" id="Path"></path>
                        </g>
                        <g id="Group" transform="translate(0.000000, 33.000000)" opacity="0.2">
                            <path d="M9.8,13.6 L23.4,5.8 C24.2,5.4 24.2,4.6 23.2,4 L17.4,0.6 C16.4,-5.68711744e-14 15,-5.68711744e-14 14.2,0.4 L0.6,8.2 C-0.2,8.6 -0.2,9.4 0.8,10 L6.6,13.4 C7.6,14 9,14 9.8,13.6 Z" id="Path"></path>
                            <path d="M24.8,22.4 L38.4,14.6 C39.2,14.2 39.2,13.4 38.2,12.8 L32.4,9.4 C31.4,8.8 30,8.8 29.2,9.2 L15.6,17 C14.8,17.4 14.8,18.2 15.8,18.8 L21.6,22.2 C22.6,22.8 24,22.8 24.8,22.4 Z" id="Path"></path>
                            <path d="M40,31.2 L53.6,23.4 C54.4,23 54.4,22.2 53.4,21.6 L47.6,18.2 C46.6,17.6 45.2,17.6 44.4,18 L30.8,25.8 C30,26.2 30,27 31,27.6 L36.8,31 C37.8,31.6 39.2,31.6 40,31.2 Z" id="Path"></path>
                            <path d="M55,40 L68.6,32.2 C69.4,31.8 69.4,31 68.4,30.4 L62.6,27 C61.6,26.4 60.2,26.4 59.4,26.8 L45.8,34.6 C45,35 45,35.8 46,36.4 L51.8,39.8 C52.8,40.4 54.2,40.4 55,40 Z" id="Path"></path>
                            <path d="M70,48.8 L83.6,41 C84.4,40.6 84.4,39.8 83.4,39.2 L77.6,35.8 C76.6,35.2 75.2,35.2 74.4,35.6 L60.8,43.4 C60,43.8 60,44.6 61,45.2 L66.8,48.6 C67.8,49.2 69.2,49.2 70,48.8 Z" id="Path"></path>
                            <path d="M85,57.6 L98.6,49.8 C99.4,49.4 99.4,48.6 98.4,48 L92.6,44.6 C91.6,44 90.2,44 89.4,44.4 L75.8,52.2 C75,52.6 75,53.4 76,54 L81.8,57.4 C82.8,58 84.2,58 85,57.6 Z" id="Path"></path>
                            <path d="M100.2,66.4 L113.8,58.6 C114.6,58.2 114.6,57.4 113.6,56.8 L107.8,53.4 C106.8,52.8 105.4,52.8 104.6,53.2 L91,61 C90.2,61.4 90.2,62.2 91.2,62.8 L97,66.2 C98,66.8 99.4,66.8 100.2,66.4 Z" id="Path"></path>
                        </g>
                    </g>
                    <g id="Keyboard01" transform="translate(296.000000, 414.000000)" fill="#D4B3FF" fill-rule="nonzero">
                        <g id="Group" transform="translate(37.000000, 0.000000)">
                            <path d="M9,14.6 C8.4,14.6 7.6,14.4 7,14.2 L1.2,10.8 C0.6,10.4 0.2,10 0.2,9.4 C0.2,9 0.4,8.6 1,8.2 L14.6,0.4 C15.6,-0.2 17,1.08434095e-13 18.2,0.6 L24,4 C24.6,4.4 25,4.8 25,5.4 C25,5.8 24.8,6.2 24.2,6.6 L10.6,14.4 C10,14.6 9.6,14.6 9,14.6 Z M9,13.6 C9.39097352,13.6 9.53423402,13.596589 9.70049628,13.5799628 C9.86504558,13.5635079 10.0185009,13.5332932 10.194472,13.4798051 L23.6452998,5.76794971 C23.942197,5.57001822 24,5.47753347 24,5.4 C24,5.27136619 23.8877053,5.12698729 23.4942805,4.86269797 L17.7527864,1.49442719 C16.7249277,0.980497817 15.7113041,0.899407931 15.0975121,1.26745703 L1.5547002,9.03205029 C1.25780297,9.22998178 1.2,9.32246653 1.2,9.4 C1.2,9.52863381 1.3122947,9.67301271 1.7057195,9.93730203 L7.41304981,13.2829784 C8.00950953,13.474281 8.61593698,13.6 9,13.6 Z" id="Path"></path>
                            <path d="M24,23.4 C23.4,23.4 22.6,23.2 22,23 L16.2,19.6 C15.6,19.2 15.2,18.8 15.2,18.2 C15.2,17.8 15.4,17.4 16,17 L29.6,9.2 C30.6,8.6 32,8.8 33.2,9.4 L39,12.8 C39.6,13.2 40,13.6 40,14.2 C40,14.6 39.8,15 39.2,15.4 L25.6,23.2 C25.2,23.4 24.6,23.4 24,23.4 Z M24,22.4 C24.7205041,22.4 25.0180271,22.3729525 25.1024879,22.332543 L38.6452998,14.5679497 C38.942197,14.3700182 39,14.2775335 39,14.2 C39,14.0713662 38.8877053,13.9269873 38.4942805,13.662698 L32.7527864,10.2944272 C31.7249277,9.78049782 30.7113041,9.69940793 30.0975121,10.067457 L16.5547002,17.8320503 C16.257803,18.0299818 16.2,18.1224665 16.2,18.2 C16.2,18.3286338 16.3122947,18.4730127 16.7057195,18.737302 L22.4130498,22.0829784 C23.0095095,22.274281 23.615937,22.4 24,22.4 Z" id="Path"></path>
                            <path d="M39,32.2 C38.4,32.2 37.6,32 37,31.8 L31.2,28.4 C30.6,28 30.2,27.6 30.2,27 C30.2,26.6 30.4,26.2 31,25.8 L44.6,18 C45.6,17.4 47,17.6 48.2,18.2 L54,21.6 C54.6,22 55,22.4 55,23 C55,23.4 54.8,23.8 54.2,24.2 L40.6,32 C40.2,32.2 39.6,32.2 39,32.2 Z M39,31.2 C39.7205041,31.2 40.0180271,31.1729525 40.1024879,31.132543 L53.6452998,23.3679497 C53.942197,23.1700182 54,23.0775335 54,23 C54,22.8713662 53.8877053,22.7269873 53.4942805,22.462698 L47.7527864,19.0944272 C46.7249277,18.5804978 45.7113041,18.4994079 45.0975121,18.867457 L31.5547002,26.6320503 C31.257803,26.8299818 31.2,26.9224665 31.2,27 C31.2,27.1286338 31.3122947,27.2730127 31.7057195,27.537302 L37.4130498,30.8829784 C38.0095095,31.074281 38.615937,31.2 39,31.2 Z" id="Path"></path>
                            <path d="M54.2,41 C53.6,41 52.8,40.8 52.2,40.6 L46.4,37.2 C45.8,36.8 45.4,36.4 45.4,35.8 C45.4,35.4 45.6,35 46.2,34.6 L59.8,26.8 C60.8,26.2 62.2,26.4 63.4,27 L69.2,30.4 C69.8,30.8 70.2,31.2 70.2,31.8 C70.2,32.2 70,32.6 69.4,33 L55.8,40.8 C55.2,41 54.8,41 54.2,41 Z M54.2,40 C54.5909735,40 54.734234,39.996589 54.9004963,39.9799628 C55.0650456,39.9635079 55.2185009,39.9332932 55.394472,39.8798051 L68.8452998,32.1679497 C69.142197,31.9700182 69.2,31.8775335 69.2,31.8 C69.2,31.6713662 69.0877053,31.5269873 68.6942805,31.262698 L62.9527864,27.8944272 C61.9249277,27.3804978 60.9113041,27.2994079 60.2975121,27.667457 L46.7547002,35.4320503 C46.457803,35.6299818 46.4,35.7224665 46.4,35.8 C46.4,35.9286338 46.5122947,36.0730127 46.9057195,36.337302 L52.6130498,39.6829784 C53.2095095,39.874281 53.815937,40 54.2,40 Z" id="Path"></path>
                            <path d="M69.2,49.8 C68.6,49.8 67.8,49.6 67.2,49.4 L61.4,46 C60.8,45.6 60.4,45.2 60.4,44.6 C60.4,44.2 60.6,43.8 61.2,43.4 L74.8,35.6 C75.8,35 77.2,35.2 78.4,35.8 L84.2,39.2 C84.8,39.6 85.2,40 85.2,40.6 C85.2,41 85,41.4 84.4,41.8 L70.8,49.6 C70.4,49.8 69.8,49.8 69.2,49.8 Z M69.2,48.8 C69.9205041,48.8 70.2180271,48.7729525 70.3024879,48.732543 L83.8452998,40.9679497 C84.142197,40.7700182 84.2,40.6775335 84.2,40.6 C84.2,40.4713662 84.0877053,40.3269873 83.6942805,40.062698 L77.9527864,36.6944272 C76.9249277,36.1804978 75.9113041,36.0994079 75.2975121,36.467457 L61.7547002,44.2320503 C61.457803,44.4299818 61.4,44.5224665 61.4,44.6 C61.4,44.7286338 61.5122947,44.8730127 61.9057195,45.137302 L67.6130498,48.4829784 C68.2095095,48.674281 68.815937,48.8 69.2,48.8 Z" id="Path"></path>
                            <path d="M84.2,58.6 C83.6,58.6 82.8,58.4 82.2,58.2 L76.4,54.8 C75.8,54.4 75.4,54 75.4,53.4 C75.4,53 75.6,52.6 76.2,52.2 L89.8,44.4 C90.8,43.8 92.2,44 93.4,44.6 L99.2,48 C99.8,48.4 100.2,48.8 100.2,49.4 C100.2,49.8 100,50.2 99.4,50.6 L85.8,58.4 C85.4,58.6 84.8,58.6 84.2,58.6 Z M84.2,57.6 C84.9205041,57.6 85.2180271,57.5729525 85.3024879,57.532543 L98.8452998,49.7679497 C99.142197,49.5700182 99.2,49.4775335 99.2,49.4 C99.2,49.2713662 99.0877053,49.1269873 98.6942805,48.862698 L92.9527864,45.4944272 C91.9249277,44.9804978 90.9113041,44.8994079 90.2975121,45.267457 L76.7547002,53.0320503 C76.457803,53.2299818 76.4,53.3224665 76.4,53.4 C76.4,53.5286338 76.5122947,53.6730127 76.9057195,53.937302 L82.6130498,57.2829784 C83.2095095,57.474281 83.815937,57.6 84.2,57.6 Z" id="Path"></path>
                            <path d="M99.4,67.4 C98.8,67.4 98,67.2 97.4,67 L91.6,63.6 C91,63.2 90.6,62.8 90.6,62.2 C90.6,61.8 90.8,61.4 91.4,61 L105,53.2 C106,52.6 107.4,52.8 108.6,53.4 L114.4,56.8 C115,57.2 115.4,57.6 115.4,58.2 C115.4,58.6 115.2,59 114.6,59.4 L101,67.2 C100.4,67.4 100,67.4 99.4,67.4 Z M99.4,66.4 C99.7909735,66.4 99.934234,66.396589 100.100496,66.3799628 C100.265046,66.3635079 100.418501,66.3332932 100.594472,66.2798051 L114.0453,58.5679497 C114.342197,58.3700182 114.4,58.2775335 114.4,58.2 C114.4,58.0713662 114.287705,57.9269873 113.894281,57.662698 L108.152786,54.2944272 C107.124928,53.7804978 106.111304,53.6994079 105.497512,54.067457 L91.9547002,61.8320503 C91.657803,62.0299818 91.6,62.1224665 91.6,62.2 C91.6,62.3286338 91.7122947,62.4730127 92.1057195,62.737302 L97.8130498,66.0829784 C98.4095095,66.274281 99.015937,66.4 99.4,66.4 Z" id="Path"></path>
                            <path d="M114.4,76.2 C113.8,76.2 113,76 112.4,75.8 L106.6,72.4 C106,72 105.6,71.6 105.6,71 C105.6,70.6 105.8,70.2 106.4,69.8 L120,62 C121,61.4 122.4,61.6 123.6,62.2 L129.4,65.6 C130,66 130.4,66.4 130.4,67 C130.4,67.4 130.2,67.8 129.6,68.2 L116,76 C115.6,76.2 115,76.2 114.4,76.2 Z M114.4,75.2 C115.120504,75.2 115.418027,75.1729525 115.502488,75.132543 L129.0453,67.3679497 C129.342197,67.1700182 129.4,67.0775335 129.4,67 C129.4,66.8713662 129.287705,66.7269873 128.894281,66.462698 L123.152786,63.0944272 C122.124928,62.5804978 121.111304,62.4994079 120.497512,62.867457 L106.9547,70.6320503 C106.657803,70.8299818 106.6,70.9224665 106.6,71 C106.6,71.1286338 106.712295,71.2730127 107.105719,71.537302 L112.81305,74.8829784 C113.40951,75.074281 114.015937,75.2 114.4,75.2 Z" id="Path"></path>
                        </g>
                        <g id="Group" transform="translate(13.000000, 15.000000)">
                            <path d="M9,14.8 C8.4,14.8 7.6,14.6 7,14.4 L1.2,11 C0.6,10.6 0.2,10.2 0.2,9.6 C0.2,9.2 0.4,8.8 1,8.4 L14.6,0.6 C15.6,-5.21804822e-15 17,0.2 18.2,0.8 L24,4.2 C24.6,4.6 25,5 25,5.6 C25,6 24.8,6.4 24.2,6.8 L10.6,14.6 C10.2,14.6 9.6,14.8 9,14.8 Z M9,13.8 C9.17815974,13.8 9.36841008,13.7757127 9.69611456,13.7161301 C10.0135718,13.6584106 10.179862,13.6289196 10.3090008,13.6141415 L23.6452998,5.96794971 C23.942197,5.77001822 24,5.67753347 24,5.6 C24,5.47136619 23.8877053,5.32698729 23.4942805,5.06269797 L17.7527864,1.69442719 C16.7249277,1.18049782 15.7113041,1.09940793 15.0975121,1.46745703 L1.5547002,9.23205029 C1.25780297,9.42998178 1.2,9.52246653 1.2,9.6 C1.2,9.72863381 1.3122947,9.87301271 1.7057195,10.137302 L7.41304981,13.4829784 C8.00950953,13.674281 8.61593698,13.8 9,13.8 Z" id="Path"></path>
                            <path d="M24.2,23.6 C23.6,23.6 22.8,23.4 22.2,23.2 L16.4,19.8 C15.8,19.4 15.4,19 15.4,18.4 C15.4,18 15.6,17.6 16.2,17.2 L29.8,9.4 C30.8,8.8 32.2,9 33.4,9.6 L39.2,13 C39.8,13.4 40.2,13.8 40.2,14.4 C40.2,14.8 40,15.2 39.4,15.6 L25.8,23.4 C25.2,23.4 24.8,23.6 24.2,23.6 Z M24.2,22.6 C24.3652731,22.6 24.490249,22.5821463 24.8038839,22.5194193 C25.1080811,22.4585799 25.3095727,22.4245304 25.5171213,22.4094857 L38.8452998,14.7679497 C39.142197,14.5700182 39.2,14.4775335 39.2,14.4 C39.2,14.2713662 39.0877053,14.1269873 38.6942805,13.862698 L32.9527864,10.4944272 C31.9249277,9.98049782 30.9113041,9.89940793 30.2975121,10.267457 L16.7547002,18.0320503 C16.457803,18.2299818 16.4,18.3224665 16.4,18.4 C16.4,18.5286338 16.5122947,18.6730127 16.9057195,18.937302 L22.6130498,22.2829784 C23.2095095,22.474281 23.815937,22.6 24.2,22.6 Z" id="Path"></path>
                            <path d="M39.2,32.4 C38.6,32.4 37.8,32.2 37.2,32 L31.4,28.6 C30.8,28.2 30.4,27.8 30.4,27.2 C30.4,26.8 30.6,26.4 31.2,26 L44.8,18.2 C45.8,17.6 47.2,17.8 48.4,18.4 L54.2,21.8 C54.8,22.2 55.2,22.6 55.2,23.2 C55.2,23.6 55,24 54.4,24.4 L40.8,32.2 C40.4,32.2 39.8,32.4 39.2,32.4 Z M39.2,31.4 C39.3781597,31.4 39.5684101,31.3757127 39.8961146,31.3161301 C40.2135718,31.2584106 40.379862,31.2289196 40.5090008,31.2141415 L53.8452998,23.5679497 C54.142197,23.3700182 54.2,23.2775335 54.2,23.2 C54.2,23.0713662 54.0877053,22.9269873 53.6942805,22.662698 L47.9527864,19.2944272 C46.9249277,18.7804978 45.9113041,18.6994079 45.2975121,19.067457 L31.7547002,26.8320503 C31.457803,27.0299818 31.4,27.1224665 31.4,27.2 C31.4,27.3286338 31.5122947,27.4730127 31.9057195,27.737302 L37.6130498,31.0829784 C38.2095095,31.274281 38.815937,31.4 39.2,31.4 Z" id="Path"></path>
                            <path d="M54.2,41.2 C53.6,41.2 52.8,41 52.2,40.8 L46.4,37.4 C45.8,37 45.4,36.6 45.4,36 C45.4,35.6 45.6,35.2 46.2,34.8 L59.8,27 C60.8,26.4 62.2,26.6 63.4,27.2 L69.2,30.6 C69.8,31 70.2,31.4 70.2,32 C70.2,32.4 70,32.8 69.4,33.2 L55.8,41 C55.4,41 54.8,41.2 54.2,41.2 Z M54.2,40.2 C54.3781597,40.2 54.5684101,40.1757127 54.8961146,40.1161301 C55.2135718,40.0584106 55.379862,40.0289196 55.5090008,40.0141415 L68.8452998,32.3679497 C69.142197,32.1700182 69.2,32.0775335 69.2,32 C69.2,31.8713662 69.0877053,31.7269873 68.6942805,31.462698 L62.9527864,28.0944272 C61.9249277,27.5804978 60.9113041,27.4994079 60.2975121,27.867457 L46.7547002,35.6320503 C46.457803,35.8299818 46.4,35.9224665 46.4,36 C46.4,36.1286338 46.5122947,36.2730127 46.9057195,36.537302 L52.6130498,39.8829784 C53.2095095,40.074281 53.815937,40.2 54.2,40.2 Z" id="Path"></path>
                            <path d="M69.4,50 C68.8,50 68,49.8 67.4,49.6 L61.6,46.2 C61,45.8 60.6,45.4 60.6,44.8 C60.6,44.4 60.8,44 61.4,43.6 L75,35.8 C76,35.2 77.4,35.4 78.6,36 L84.4,39.4 C85,39.8 85.4,40.2 85.4,40.8 C85.4,41.2 85.2,41.6 84.6,42 L71,49.8 C70.4,49.8 70,50 69.4,50 Z M69.4,49 C69.5652731,49 69.690249,48.9821463 70.0038839,48.9194193 C70.3080811,48.8585799 70.5095727,48.8245304 70.7171213,48.8094857 L84.0452998,41.1679497 C84.342197,40.9700182 84.4,40.8775335 84.4,40.8 C84.4,40.6713662 84.2877053,40.5269873 83.8942805,40.262698 L78.1527864,36.8944272 C77.1249277,36.3804978 76.1113041,36.2994079 75.4975121,36.667457 L61.9547002,44.4320503 C61.657803,44.6299818 61.6,44.7224665 61.6,44.8 C61.6,44.9286338 61.7122947,45.0730127 62.1057195,45.337302 L67.8130498,48.6829784 C68.4095095,48.874281 69.015937,49 69.4,49 Z" id="Path"></path>
                            <path d="M84.4,58.8 C83.8,58.8 83,58.6 82.4,58.4 L76.6,55 C76,54.6 75.6,54.2 75.6,53.6 C75.6,53.2 75.8,52.8 76.4,52.4 L90,44.6 C91,44 92.4,44.2 93.6,44.8 L99.4,48.2 C100,48.6 100.4,49 100.4,49.6 C100.4,50 100.2,50.4 99.6,50.8 L86,58.6 C85.6,58.6 85,58.8 84.4,58.8 Z M84.4,57.8 C84.5781597,57.8 84.7684101,57.7757127 85.0961146,57.7161301 C85.4135718,57.6584106 85.579862,57.6289196 85.7090008,57.6141415 L99.0452998,49.9679497 C99.342197,49.7700182 99.4,49.6775335 99.4,49.6 C99.4,49.4713662 99.2877053,49.3269873 98.8942805,49.062698 L93.1527864,45.6944272 C92.1249277,45.1804978 91.1113041,45.0994079 90.4975121,45.467457 L76.9547002,53.2320503 C76.657803,53.4299818 76.6,53.5224665 76.6,53.6 C76.6,53.7286338 76.7122947,53.8730127 77.1057195,54.137302 L82.8130498,57.4829784 C83.4095095,57.674281 84.015937,57.8 84.4,57.8 Z" id="Path"></path>
                            <path d="M99.4,67.6 C98.8,67.6 98,67.4 97.4,67.2 L91.6,63.8 C91,63.4 90.6,63 90.6,62.4 C90.6,62 90.8,61.6 91.4,61.2 L105,53.4 C106,52.8 107.4,53 108.6,53.6 L114.4,57 C115,57.4 115.4,57.8 115.4,58.4 C115.4,58.8 115.2,59.2 114.6,59.6 L101,67.4 C100.6,67.4 100,67.6 99.4,67.6 Z M99.4,66.6 C99.5781597,66.6 99.7684101,66.5757127 100.096115,66.5161301 C100.413572,66.4584106 100.579862,66.4289196 100.709001,66.4141415 L114.0453,58.7679497 C114.342197,58.5700182 114.4,58.4775335 114.4,58.4 C114.4,58.2713662 114.287705,58.1269873 113.894281,57.862698 L108.152786,54.4944272 C107.124928,53.9804978 106.111304,53.8994079 105.497512,54.267457 L91.9547002,62.0320503 C91.657803,62.2299818 91.6,62.3224665 91.6,62.4 C91.6,62.5286338 91.7122947,62.6730127 92.1057195,62.937302 L97.8130498,66.2829784 C98.4095095,66.474281 99.015937,66.6 99.4,66.6 Z" id="Path"></path>
                            <path d="M114.6,76.4 C114,76.4 113.2,76.2 112.6,76 L106.8,72.6 C106.2,72.2 105.8,71.8 105.8,71.2 C105.8,70.8 106,70.4 106.6,70 L120.2,62.2 C121.2,61.6 122.6,61.8 123.8,62.4 L129.6,65.8 C130.2,66.2 130.6,66.6 130.6,67.2 C130.6,67.6 130.4,68 129.8,68.4 L116.2,76.2 C115.6,76.2 115.2,76.4 114.6,76.4 Z M114.6,75.4 C114.765273,75.4 114.890249,75.3821463 115.203884,75.3194193 C115.508081,75.2585799 115.709573,75.2245304 115.917121,75.2094857 L129.2453,67.5679497 C129.542197,67.3700182 129.6,67.2775335 129.6,67.2 C129.6,67.0713662 129.487705,66.9269873 129.094281,66.662698 L123.352786,63.2944272 C122.324928,62.7804978 121.311304,62.6994079 120.697512,63.067457 L107.1547,70.8320503 C106.857803,71.0299818 106.8,71.1224665 106.8,71.2 C106.8,71.3286338 106.912295,71.4730127 107.305719,71.737302 L113.01305,75.0829784 C113.60951,75.274281 114.215937,75.4 114.6,75.4 Z" id="Path"></path>
                        </g>
                        <g id="Group" transform="translate(0.000000, 32.000000)">
                            <path d="M9.4,15.4 C8.8,15.4 8,15.2 7.4,15 L1.6,11.6 C1,11.2 0.6,10.8 0.6,10.2 C0.6,9.8 0.8,9.4 1.4,9 L15,1.2 C16,0.6 17.4,0.8 18.6,1.4 L24.4,4.8 C25,5.2 25.4,5.6 25.4,6.2 C25.4,6.6 25.2,7 24.6,7.4 L11,15.2 C10.6,15.2 10,15.4 9.4,15.4 Z M9.4,14.4 C9.57815974,14.4 9.76841008,14.3757127 10.0961146,14.3161301 C10.4135718,14.2584106 10.579862,14.2289196 10.7090008,14.2141415 L24.0452998,6.56794971 C24.342197,6.37001822 24.4,6.27753347 24.4,6.2 C24.4,6.07136619 24.2877053,5.92698729 23.8942805,5.66269797 L18.1527864,2.29442719 C17.1249277,1.78049782 16.1113041,1.69940793 15.4975121,2.06745703 L1.9547002,9.83205029 C1.65780297,10.0299818 1.6,10.1224665 1.6,10.2 C1.6,10.3286338 1.7122947,10.4730127 2.1057195,10.737302 L7.81304981,14.0829784 C8.40950953,14.274281 9.01593698,14.4 9.4,14.4 Z" id="Path"></path>
                            <path d="M24.4,24.2 C23.8,24.2 23,24 22.4,23.8 L16.6,20.4 C16,20 15.6,19.6 15.6,19 C15.6,18.6 15.8,18.2 16.4,17.8 L30,10 C31,9.4 32.4,9.6 33.6,10.2 L39.4,13.6 C40,14 40.4,14.4 40.4,15 C40.4,15.4 40.2,15.8 39.6,16.2 L26,24 C25.6,24 25,24.2 24.4,24.2 Z M24.4,23.2 C24.5781597,23.2 24.7684101,23.1757127 25.0961146,23.1161301 C25.4135718,23.0584106 25.579862,23.0289196 25.7090008,23.0141415 L39.0452998,15.3679497 C39.342197,15.1700182 39.4,15.0775335 39.4,15 C39.4,14.8713662 39.2877053,14.7269873 38.8942805,14.462698 L33.1527864,11.0944272 C32.1249277,10.5804978 31.1113041,10.4994079 30.4975121,10.867457 L16.9547002,18.6320503 C16.657803,18.8299818 16.6,18.9224665 16.6,19 C16.6,19.1286338 16.7122947,19.2730127 17.1057195,19.537302 L22.8130498,22.8829784 C23.4095095,23.074281 24.015937,23.2 24.4,23.2 Z" id="Path"></path>
                            <path d="M39.6,33 C39,33 38.2,32.8 37.6,32.6 L31.8,29.2 C31.2,28.8 30.8,28.4 30.8,27.8 C30.8,27.4 31,27 31.6,26.6 L45.2,18.8 C46.2,18.2 47.6,18.4 48.8,19 L54.6,22.4 C55.2,22.8 55.6,23.2 55.6,23.8 C55.6,24.2 55.4,24.6 54.8,25 L41.2,32.8 C40.6,32.8 40.2,33 39.6,33 Z M39.6,32 C39.7652731,32 39.890249,31.9821463 40.2038839,31.9194193 C40.5080811,31.8585799 40.7095727,31.8245304 40.9171213,31.8094857 L54.2452998,24.1679497 C54.542197,23.9700182 54.6,23.8775335 54.6,23.8 C54.6,23.6713662 54.4877053,23.5269873 54.0942805,23.262698 L48.3527864,19.8944272 C47.3249277,19.3804978 46.3113041,19.2994079 45.6975121,19.667457 L32.1547002,27.4320503 C31.857803,27.6299818 31.8,27.7224665 31.8,27.8 C31.8,27.9286338 31.9122947,28.0730127 32.3057195,28.337302 L38.0130498,31.6829784 C38.6095095,31.874281 39.215937,32 39.6,32 Z" id="Path"></path>
                            <path d="M54.6,41.8 C54,41.8 53.2,41.6 52.6,41.4 L46.8,38 C46.2,37.6 45.8,37.2 45.8,36.6 C45.8,36.2 46,35.8 46.6,35.4 L60.2,27.6 C61.2,27 62.6,27.2 63.8,27.8 L69.6,31.2 C70.2,31.6 70.6,32 70.6,32.6 C70.6,33 70.4,33.4 69.8,33.8 L56.2,41.6 C55.8,41.6 55.2,41.8 54.6,41.8 Z M54.6,40.8 C54.7781597,40.8 54.9684101,40.7757127 55.2961146,40.7161301 C55.6135718,40.6584106 55.779862,40.6289196 55.9090008,40.6141415 L69.2452998,32.9679497 C69.542197,32.7700182 69.6,32.6775335 69.6,32.6 C69.6,32.4713662 69.4877053,32.3269873 69.0942805,32.062698 L63.3527864,28.6944272 C62.3249277,28.1804978 61.3113041,28.0994079 60.6975121,28.467457 L47.1547002,36.2320503 C46.857803,36.4299818 46.8,36.5224665 46.8,36.6 C46.8,36.7286338 46.9122947,36.8730127 47.3057195,37.137302 L53.0130498,40.4829784 C53.6095095,40.674281 54.215937,40.8 54.6,40.8 Z" id="Path"></path>
                            <path d="M69.6,50.6 C69,50.6 68.2,50.4 67.6,50.2 L61.8,46.8 C61.2,46.4 60.8,46 60.8,45.4 C60.8,45 61,44.6 61.6,44.2 L75.2,36.4 C76.2,35.8 77.6,36 78.8,36.6 L84.6,40 C85.2,40.4 85.6,40.8 85.6,41.4 C85.6,41.8 85.4,42.2 84.8,42.6 L71.2,50.4 C70.8,50.4 70.2,50.6 69.6,50.6 Z M69.6,49.6 C69.7781597,49.6 69.9684101,49.5757127 70.2961146,49.5161301 C70.6135718,49.4584106 70.779862,49.4289196 70.9090008,49.4141415 L84.2452998,41.7679497 C84.542197,41.5700182 84.6,41.4775335 84.6,41.4 C84.6,41.2713662 84.4877053,41.1269873 84.0942805,40.862698 L78.3527864,37.4944272 C77.3249277,36.9804978 76.3113041,36.8994079 75.6975121,37.267457 L62.1547002,45.0320503 C61.857803,45.2299818 61.8,45.3224665 61.8,45.4 C61.8,45.5286338 61.9122947,45.6730127 62.3057195,45.937302 L68.0130498,49.2829784 C68.6095095,49.474281 69.215937,49.6 69.6,49.6 Z" id="Path"></path>
                            <path d="M84.8,59.4 C84.2,59.4 83.4,59.2 82.8,59 L77,55.6 C76.4,55.2 76,54.8 76,54.2 C76,53.8 76.2,53.4 76.8,53 L90.4,45.2 C91.4,44.6 92.8,44.8 94,45.4 L99.8,48.8 C100.4,49.2 100.8,49.6 100.8,50.2 C100.8,50.6 100.6,51 100,51.4 L86.4,59.2 C85.8,59.2 85.4,59.4 84.8,59.4 Z M84.8,58.4 C84.9652731,58.4 85.090249,58.3821463 85.4038839,58.3194193 C85.7080811,58.2585799 85.9095727,58.2245304 86.1171213,58.2094857 L99.4452998,50.5679497 C99.742197,50.3700182 99.8,50.2775335 99.8,50.2 C99.8,50.0713662 99.6877053,49.9269873 99.2942805,49.662698 L93.5527864,46.2944272 C92.5249277,45.7804978 91.5113041,45.6994079 90.8975121,46.067457 L77.3547002,53.8320503 C77.057803,54.0299818 77,54.1224665 77,54.2 C77,54.3286338 77.1122947,54.4730127 77.5057195,54.737302 L83.2130498,58.0829784 C83.8095095,58.274281 84.415937,58.4 84.8,58.4 Z" id="Path"></path>
                            <path d="M99.8,68.2 C99.2,68.2 98.4,68 97.8,67.8 L92,64.4 C91.4,64 91,63.6 91,63 C91,62.6 91.2,62.2 91.8,61.8 L105.4,54 C106.4,53.4 107.8,53.6 109,54.2 L114.8,57.6 C115.4,58 115.8,58.4 115.8,59 C115.8,59.4 115.6,59.8 115,60.2 L101.4,68 C101,68 100.4,68.2 99.8,68.2 Z M99.8,67.2 C99.9781597,67.2 100.16841,67.1757127 100.496115,67.1161301 C100.813572,67.0584106 100.979862,67.0289196 101.109001,67.0141415 L114.4453,59.3679497 C114.742197,59.1700182 114.8,59.0775335 114.8,59 C114.8,58.8713662 114.687705,58.7269873 114.294281,58.462698 L108.552786,55.0944272 C107.524928,54.5804978 106.511304,54.4994079 105.897512,54.867457 L92.3547002,62.6320503 C92.057803,62.8299818 92,62.9224665 92,63 C92,63.1286338 92.1122947,63.2730127 92.5057195,63.537302 L98.2130498,66.8829784 C98.8095095,67.074281 99.415937,67.2 99.8,67.2 Z" id="Path"></path>
                        </g>
                    </g>
                    <g id="Char" transform="translate(430.000000, 233.000000)" fill-rule="nonzero">
                        <path d="M294,62 L212.2,14.8 C207.2,12 207.8,7 213.6,3.6 L213.6,3.6 C219.4,0.2 228,2.81996648e-14 233,2.8 L314.8,50 C319.8,52.8 319.2,57.8 313.4,61.2 L313.4,61.2 C307.6,64.4 299,64.8 294,62 Z" id="Path" fill="#42E8E0" opacity="0.4"></path>
                        <path d="M261.6,105.6 L213.4,77.8 C208.4,75 209,70 214.8,66.6 L214.8,66.6 C220.6,63.2 229.2,63 234.2,65.8 L282.4,93.6 C287.4,96.4 286.8,101.4 281,104.8 L281,104.8 C275.2,108.2 266.6,108.6 261.6,105.6 Z" id="Path" fill="#42E8E0" opacity="0.4"></path>
                        <path d="M188,173.2 L167.6,161.4 C162.6,158.6 163.2,153.6 169,150.2 L169,150.2 C174.8,146.8 183.4,146.6 188.4,149.4 L208.8,161.2 C213.8,164 213.2,169 207.4,172.4 L207.4,172.4 C201.8,175.8 193,176.2 188,173.2 Z" id="Path" fill="#42E8E0" opacity="0.4"></path>
                        <path d="M294,113.2 L212.2,66 C207.2,63.2 207.8,58.2 213.6,54.8 L213.6,54.8 C219.4,51.4 228,51.2 233,54 L314.8,101.2 C319.8,104 319.2,109 313.4,112.4 L313.4,112.4 C307.6,115.8 299,116.2 294,113.2 Z" id="Path" fill="#000000" opacity="0.2"></path>
                        <path d="M164.6,123.2 L69.4,68.2 C64.4,65.4 65,60.4 70.8,57 L70.8,57 C76.6,53.6 85.2,53.4 90.2,56.2 L185.4,111.2 C190.4,114 189.8,119 184,122.4 L184,122.4 C178.4,125.8 169.6,126 164.6,123.2 Z" id="Path" fill="#000000" opacity="0.2"></path>
                        <path d="M188,185.4 L167.6,173.6 C162.6,170.8 163.2,165.8 169,162.4 L169,162.4 C174.8,159 183.4,158.8 188.4,161.6 L208.8,173.4 C213.8,176.2 213.2,181.2 207.4,184.6 L207.4,184.6 C201.8,187.8 193,188.2 188,185.4 Z" id="Path" fill="#000000" opacity="0.2"></path>
                        <path d="M24.8,129 L4.4,117.2 C-0.6,114.4 6.8278716e-13,109.4 5.8,106 L5.8,106 C11.6,102.6 20.2,102.4 25.2,105.2 L45.6,117 C50.6,119.8 50,124.8 44.2,128.2 L44.2,128.2 C38.6,131.6 29.8,132 24.8,129 Z" id="Path" fill="#24126A" opacity="0.4"></path>
                        <path d="M173.2,103.6 C170,103.6 166.8,103 164.6,101.6 L69.4,46.6 C67.2,45.2 65.8,43.4 65.8,41.4 C65.8,39 67.6,36.6 70.8,34.8 C76.6,31.4 85.6,31 90.6,34 L185.8,89 C188,90.4 189.4,92.2 189.4,94.2 C189.4,96.6 187.6,99 184.4,100.8 C181.2,102.6 177,103.6 173.2,103.6 Z" id="Path" fill="#9042F8"></path>
                        <path d="M302.4,64.2 C299.2,64.2 296,63.6 293.8,62.2 L212,15 C209.8,13.6 208.4,11.8 208.4,9.8 C208.4,7.4 210.2,5 213.4,3.2 C219.2,-0.2 228.2,-0.6 233.2,2.4 L315,49.6 C317.2,51 318.6,52.8 318.6,54.8 C318.6,57.2 316.8,59.6 313.6,61.4 C310.4,63.2 306.2,64.2 302.4,64.2 Z" id="Path" fill="#42E8E0"></path>
                        <path d="M270,108 C266.8,108 263.6,107.4 261.4,106 L213.2,78.2 C211,76.8 209.6,75 209.6,73 C209.6,70.6 211.4,68.2 214.6,66.4 C220.4,63 229.4,62.6 234.4,65.6 L282.6,93.4 C284.8,94.8 286.2,96.6 286.2,98.6 C286.2,101 284.4,103.4 281.2,105.2 C278,107 274,108 270,108 Z" id="Path" fill="#42E8E0"></path>
                        <path d="M261.6,141.6 L213.4,113.8 C208.4,111 209,106 214.8,102.6 L214.8,102.6 C220.6,99.2 229.2,99 234.2,101.8 L282.4,129.6 C287.4,132.4 286.8,137.4 281,140.8 L281,140.8 C275.2,144 266.6,144.4 261.6,141.6 Z" id="Path" fill="#000000" opacity="0.2"></path>
                        <path d="M196.4,175.6 C193.2,175.6 190,175 187.8,173.6 L167.4,161.8 C165.2,160.4 163.8,158.6 163.8,156.6 C163.8,154.2 165.6,151.8 168.8,150 C174.6,146.6 183.6,146.2 188.6,149.2 L209,161 C211.2,162.4 212.6,164.2 212.6,166.2 C212.6,168.6 210.8,171 207.6,172.8 C204.4,174.6 200.4,175.6 196.4,175.6 Z" id="Path" fill="#42E8E0"></path>
                        <path d="M33.2,125.6 C30,125.6 26.8,125 24.6,123.6 L4.2,111.8 C2,110.4 0.6,108.6 0.6,106.6 C0.6,104.2 2.4,101.8 5.6,100 C11.4,96.6 20.4,96.2 25.4,99.2 L45.8,111 C48,112.4 49.4,114.2 49.4,116.2 C49.4,118.6 47.6,121 44.4,122.8 C41.2,124.6 37.2,125.6 33.2,125.6 Z" id="Path" fill="#9042F8"></path>
                    </g>
                    <g id="Message" transform="translate(365.000000, 364.000000)" fill-rule="nonzero">
                        <path d="M130,113.6 L7,42.6 C-1.4,37.8 -0.4,29.4 9.4,23.8 L9.4,23.8 C19,18.2 33.6,17.6 42,22.4 L165,93.4 C173.4,98.2 172.4,106.6 162.6,112.2 L162.6,112.2 C153,118 138.2,118.6 130,113.6 Z" id="Path" fill="#000000" opacity="0.2"></path>
                        <path d="M130,104.8 L7,33.8 C-1.4,29 -0.4,20.6 9.4,15 L9.4,15 C19,9.4 33.6,8.8 42,13.6 L165,84.6 C173.4,89.4 172.4,97.8 162.6,103.4 L162.6,103.4 C153,109.2 138.2,109.8 130,104.8 Z" id="Path" fill="#42E8E0" opacity="0.4"></path>
                        <g id="Group" fill="#42E8E0">
                            <path d="M144,108.6 C138.6,108.6 133.4,107.6 129.6,105.2 L6.6,34.2 C2.8,32 0.8,29 0.8,25.6 C0.8,21.6 3.8,17.6 9,14.6 C18.8,9 33.6,8.4 42,13.2 L165,84.2 C168.8,86.4 170.8,89.4 170.8,92.8 C170.8,96.8 167.8,100.8 162.6,103.8 C157.4,107 150.6,108.6 144,108.6 Z" id="Path" opacity="0.2"></path>
                            <path d="M152.2,98.2 C149.4,99.8 144.6,99.8 141.8,98.2 C139,96.6 139,93.8 141.8,92.2 C144.6,90.6 149.4,90.6 152.2,92.2 C155.2,93.8 155.2,96.6 152.2,98.2 Z" id="Path" opacity="0.4"></path>
                            <path d="M147,99.8 C145,99.8 143.2,99.4 141.6,98.6 C140.2,97.8 139.4,96.6 139.4,95.4 C139.4,94.2 140.2,93 141.6,92.2 C144.6,90.6 149.4,90.6 152.2,92.2 C153.6,93 154.4,94.2 154.4,95.4 C154.4,96.6 153.6,97.8 152.2,98.6 L152.2,98.6 C151,99.4 149,99.8 147,99.8 Z" id="Path"></path>
                            <path d="M135,88.2 C132.2,89.8 127.4,89.8 124.6,88.2 C121.8,86.6 121.8,83.8 124.6,82.2 C127.4,80.6 132.2,80.6 135,82.2 C137.8,83.8 137.8,86.6 135,88.2 Z" id="Path" opacity="0.4"></path>
                            <path d="M129.8,86.4 C127.8,86.4 126,86 124.4,85.2 C123,84.4 122.2,83.2 122.2,82 C122.2,80.8 123,79.6 124.4,78.8 C127.4,77.2 132.2,77.2 135,78.8 C136.4,79.6 137.2,80.8 137.2,82 C137.2,83.2 136.4,84.4 135,85.2 L135,85.2 C133.6,86 131.8,86.4 129.8,86.4 Z" id="Path"></path>
                            <path d="M84.8,50 C82.8,50 81,49.6 79.4,48.8 C78,48 77.2,46.8 77.2,45.6 C77.2,44.4 78,43.2 79.4,42.4 C82.4,40.8 87.2,40.8 90,42.4 C91.4,43.2 92.2,44.4 92.2,45.6 C92.2,46.8 91.4,48 90,48.8 C88.8,49.6 86.8,50 84.8,50 Z" id="Path"></path>
                            <path d="M90,63 C87.2,64.6 82.4,64.6 79.6,63 C76.8,61.4 76.8,58.6 79.6,57 C82.4,55.4 87.2,55.4 90,57 C93,58.8 93,61.4 90,63 Z" id="Path" opacity="0.4"></path>
                            <path d="M67.6,31.4 C65.6,31.4 63.8,31 62.2,30.2 C60.8,29.4 60,28.2 60,27 C60,25.8 60.8,24.6 62.2,23.8 C65.2,22.2 70,22.2 72.8,23.8 C74.2,24.6 75,25.8 75,27 C75,28.2 74.2,29.4 72.8,30.2 L72.8,30.2 C71.4,31 69.6,31.4 67.6,31.4 Z" id="Path"></path>
                            <path d="M72.8,53.8 C70,55.4 65.2,55.4 62.4,53.8 C59.6,52.2 59.6,49.4 62.4,47.8 C65.2,46.2 70,46.2 72.8,47.8 C75.6,49.4 75.6,52.2 72.8,53.8 Z" id="Path" opacity="0.4"></path>
                            <path d="M50.4,8.8 C48.4,8.8 46.6,8.4 45,7.6 C43.6,6.8 42.8,5.6 42.8,4.4 C42.8,3.2 43.6,2 45,1.2 C48,-0.4 52.8,-0.4 55.6,1.2 C57,2 57.8,3.2 57.8,4.4 C57.8,5.6 57,6.8 55.6,7.6 L55.6,7.6 C54.2,8.4 52.2,8.8 50.4,8.8 Z" id="Path"></path>
                            <path d="M55.2,44.2 C52.4,45.8 47.6,45.8 44.8,44.2 C42,42.6 42,39.8 44.8,38.2 C47.6,36.6 52.4,36.6 55.2,38.2 C58,39.8 58,42.6 55.2,44.2 Z" id="Path" opacity="0.4"></path>
                            <path d="M104.8,65.2 L119.8,73.8 C122.2,75.2 122,77.8 119.2,79.4 L119.2,79.4 C116.4,81 112,81.2 109.6,79.8 L94.6,71.2 C92.2,69.8 92.4,67.2 95.2,65.6 L95.2,65.6 C98,64 102.2,63.8 104.8,65.2 Z" id="Path" opacity="0.4"></path>
                            <path d="M113.6,74.2 C112,74.2 110.4,73.8 109.2,73.2 L94.2,64.6 C93,64 92.4,63 92.4,62 C92.4,60.8 93.4,59.6 95,58.6 C98,57 102.4,56.8 105,58.2 L120,66.8 C121.2,67.4 121.8,68.4 121.8,69.4 C121.8,70.6 120.8,71.8 119.2,72.8 C117.6,73.8 115.6,74.2 113.6,74.2 Z" id="Path"></path>
                        </g>
                    </g>
                    <path d="M573.850498,669.503322 C570.860465,669.503322 567.571429,668.606312 564.880399,667.111296 L531.093023,647.67608 C529.598007,646.77907 529,645.583056 529,643.789037 C529,642.29402 529.89701,640.799003 531.093023,639.901993 L564.880399,620.466777 C570.561462,617.177741 577.438538,617.177741 583.119601,620.466777 L616.906977,639.901993 C618.401993,640.799003 619,641.995017 619,643.789037 C619,645.284053 618.10299,646.77907 616.906977,647.67608 L583.119601,667.111296 C580.129568,668.606312 576.840532,669.503322 573.850498,669.503322 Z M532,643.789037 C532,644.59299 532.099857,644.781609 532.588869,645.075609 L566.337327,664.488824 C568.615541,665.754498 571.406613,666.503322 573.850498,666.503322 C576.256492,666.503322 579.056346,665.775999 581.702062,664.465782 L615.219689,645.185731 C615.689705,644.783987 616,644.196034 616,643.789037 C616,642.985083 615.900143,642.796464 615.411131,642.502464 L581.616493,623.063056 C576.865211,620.312315 571.134789,620.312315 566.376244,623.067248 L532.780311,642.392342 C532.310295,642.794086 532,643.382039 532,643.789037 Z" id="Path" fill-opacity="0.15" fill="#6031CD" fill-rule="nonzero"></path>
                    <path d="M474.850498,211.503322 C471.860465,211.503322 468.571429,210.606312 465.880399,209.111296 L432.093023,189.67608 C430.598007,188.77907 430,187.583056 430,185.789037 C430,184.29402 430.89701,182.799003 432.093023,181.901993 L465.880399,162.466777 C471.561462,159.177741 478.438538,159.177741 484.119601,162.466777 L517.906977,181.901993 C519.401993,182.799003 520,183.995017 520,185.789037 C520,187.284053 519.10299,188.77907 517.906977,189.67608 L484.119601,209.111296 C481.129568,210.606312 477.840532,211.503322 474.850498,211.503322 Z M433,185.789037 C433,186.59299 433.099857,186.781609 433.588869,187.075609 L467.337327,206.488824 C469.615541,207.754498 472.406613,208.503322 474.850498,208.503322 C477.256492,208.503322 480.056346,207.775999 482.702062,206.465782 L516.219689,187.185731 C516.689705,186.783987 517,186.196034 517,185.789037 C517,184.985083 516.900143,184.796464 516.411131,184.502464 L482.616493,165.063056 C477.865211,162.312315 472.134789,162.312315 467.376244,165.067248 L433.780311,184.392342 C433.310295,184.794086 433,185.382039 433,185.789037 Z" id="Path" fill-opacity="0.15" fill="#6031CD" fill-rule="nonzero"></path>
                    <path d="M64.8,529.65 C60.4,529.65 55.8,528.45 52,526.25 L2.8,497.85 C1,496.85 0,495.05 0,492.85 C0,490.65 1,488.85 2.8,487.85 L52,459.45 C60,454.85 69.8,454.85 77.8,459.45 L127,487.85 C128.8,488.85 129.8,490.65 129.8,492.85 C129.8,494.85 128.8,496.85 127,497.85 L77.8,526.25 C73.8,528.45 69.4,529.65 64.8,529.65 Z M64.8,526.65 C68.8174741,526.65 72.7266119,525.61655 76.3002231,523.651795 L125.543071,495.227528 C126.2927,494.811068 126.8,493.876568 126.8,492.85 C126.8,491.709701 126.363233,490.928117 125.500223,490.448205 L76.3045866,462.050719 C69.2304558,457.983094 60.5695442,457.983094 53.4997769,462.048205 L4.25692879,490.472472 C3.43676729,490.928117 3,491.709701 3,492.85 C3,493.990299 3.43676729,494.771883 4.29977688,495.251795 L53.5031088,523.653721 C56.8171535,525.572379 60.8933736,526.65 64.8,526.65 Z" id="Path" fill-opacity="0.15" fill="#6031CD" fill-rule="nonzero"></path>
                    <g id="message" transform="translate(213.000000, 267.000000)" fill-rule="nonzero">
                        <path d="M39.6,5 L68.6,21.8 C70.2,22.8 73,22.8 74.6,21.8 C76.2,20.8 76.2,19.2 74.6,18.2 L45.6,1.4 C44,0.4 41.2,0.4 39.6,1.4 C38,2.6 38,4 39.6,5 Z" id="Path" fill="#9042F8"></path>
                        <path d="M27,8.8 C25.4,9.8 25.4,11.4 27,12.4 L71.6,38.2 C73.2,39.2 76,39.2 77.6,38.2 C79.2,37.2 79.2,35.6 77.6,34.6 L33,8.8 C31.4,8 28.6,8 27,8.8 Z" id="Path" fill="#9042F8" opacity="0.6"></path>
                        <path d="M14.2,19.8 L23.2,25 C24.8,26 27.6,26 29.2,25 C30.8,24 30.8,22.4 29.2,21.4 L20.2,16.2 C18.6,15.2 15.8,15.2 14.2,16.2 C12.6,17.2 12.6,18.8 14.2,19.8 Z" id="Path" fill="#9042F8"></path>
                        <path d="M1.6,27 L26.8,41.6 C28.4,42.6 31.2,42.6 32.8,41.6 C34.4,40.6 34.4,39 32.8,38 L7.6,23.4 C6,22.4 3.2,22.4 1.6,23.4 C-0.2,24.6 -0.2,26.2 1.6,27 Z" id="Path" fill="#42E8E0"></path>
                        <path d="M65.6,45.8 C67.2,44.8 67.2,43.2 65.6,42.2 L40.4,27.6 C38.8,26.6 36,26.6 34.4,27.6 C32.8,28.6 32.8,30.2 34.4,31.2 L59.6,45.8 C61.2,46.8 64,46.8 65.6,45.8 Z" id="Path" fill="#9042F8"></path>
                        <path d="M85.4,53.8 L84,53 L76.8,48.8 C75.2,47.8 72.4,47.8 70.8,48.8 C69.2,49.8 69.2,51.4 70.8,52.4 L78,56.6 L79.4,57.4 L86.6,61.6 C88.2,62.6 91,62.6 92.6,61.6 C94.2,60.6 94.2,59 92.6,58 L85.4,53.8 Z" id="Path" fill="#9042F8" opacity="0.6"></path>
                    </g>
                    <g id="message" transform="translate(732.000000, 494.000000)" fill-rule="nonzero">
                        <path d="M39.6,5 L68.6,21.8 C70.2,22.8 73,22.8 74.6,21.8 C76.2,20.8 76.2,19.2 74.6,18.2 L45.6,1.4 C44,0.4 41.2,0.4 39.6,1.4 C38,2.6 38,4 39.6,5 Z" id="Path" fill="#9042F8"></path>
                        <path d="M27,8.8 C25.4,9.8 25.4,11.4 27,12.4 L71.6,38.2 C73.2,39.2 76,39.2 77.6,38.2 C79.2,37.2 79.2,35.6 77.6,34.6 L33,8.8 C31.4,8 28.6,8 27,8.8 Z" id="Path" fill="#9042F8" opacity="0.6"></path>
                        <path d="M14.2,19.8 L23.2,25 C24.8,26 27.6,26 29.2,25 C30.8,24 30.8,22.4 29.2,21.4 L20.2,16.2 C18.6,15.2 15.8,15.2 14.2,16.2 C12.6,17.2 12.6,18.8 14.2,19.8 Z" id="Path" fill="#9042F8"></path>
                        <path d="M1.6,27 L26.8,41.6 C28.4,42.6 31.2,42.6 32.8,41.6 C34.4,40.6 34.4,39 32.8,38 L7.6,23.4 C6,22.4 3.2,22.4 1.6,23.4 C-0.2,24.6 -0.2,26.2 1.6,27 Z" id="Path" fill="#42E8E0"></path>
                        <path d="M65.6,45.8 C67.2,44.8 67.2,43.2 65.6,42.2 L40.4,27.6 C38.8,26.6 36,26.6 34.4,27.6 C32.8,28.6 32.8,30.2 34.4,31.2 L59.6,45.8 C61.2,46.8 64,46.8 65.6,45.8 Z" id="Path" fill="#9042F8"></path>
                        <path d="M85.4,53.8 L84,53 L76.8,48.8 C75.2,47.8 72.4,47.8 70.8,48.8 C69.2,49.8 69.2,51.4 70.8,52.4 L78,56.6 L79.4,57.4 L86.6,61.6 C88.2,62.6 91,62.6 92.6,61.6 C94.2,60.6 94.2,59 92.6,58 L85.4,53.8 Z" id="Path" fill="#9042F8" opacity="0.6"></path>
                    </g>
                    <g id="cloud" transform="translate(329.000000, 0.000000)">
                        <path d="M201.6,24.8 L167.4,4.8 L167.4,4.8 C162.2,1.8 155.2,2.2 147.4,6.6 C144.8,8 142.4,10 140,12 L126.2,4 L126.2,4 C118.6,-1.4 107.6,-1.2 95.4,6 C80,15 66.4,32.4 59.4,51 C57,51 54.4,51.8 51.6,53.4 C41.6,59.2 33.4,73.4 33.4,85 C33.4,85.2 33.4,85.4 33.4,85.8 C30.6,86 27.4,87 24,89 C11,96.4 0.6,114.6 0.6,129.4 C0.6,136.8 3.2,142 7.4,144.4 L7.4,144.4 L7.6,144.4 C7.6,144.4 7.6,144.4 7.6,144.4 L41.4,164 L48.8,128.4 L147.6,71.4 C160.2,64.2 171,48.4 174.4,33 L201.6,24.8 Z" id="Path" fill="url(#linearGradient-5)"></path>
                        <path d="M181.2,26.4 C176.8,29 172.6,32.6 168.8,36.8 C163.6,20.2 147.8,15 129.2,25.8 C113.8,34.8 100.2,52.2 93.2,70.8 C90.8,70.8 88.2,71.6 85.4,73.2 C75.4,79 67.2,93.2 67.2,104.8 C67.2,105 67.2,105.2 67.2,105.6 C64.4,105.8 61.2,106.8 57.8,108.8 C44.8,116.2 34.4,134.4 34.4,149.2 C34.4,164 44.8,170.2 57.8,162.6 L181.2,91.4 C196.8,82.4 209.4,60.6 209.4,42.6 C209.4,24.8 196.8,17.6 181.2,26.4 Z" id="Path" fill="url(#linearGradient-6)"></path>
                        <g id="Group" transform="translate(33.000000, 18.000000)" fill="#FFFFFF">
                            <path d="M135.8,19 C139.6,14.8 143.8,11.2 148.2,8.6 C157.8,3 166.2,3.8 171.2,9.2 C166.2,3 157.4,2 147.4,7.8 C143.2,10.2 139,13.8 135.4,17.8 C135.6,18 135.6,18.4 135.8,19 Z" id="Path"></path>
                            <path d="M1.4,131.4 C1.4,116.6 11.8,98.4 24.8,91 C28.2,89 31.4,88 34.2,87.8 C34.2,87.6 34.2,87.4 34.2,87 C34.2,75.4 42.4,61.2 52.4,55.4 C55.2,53.8 57.8,53 60.2,53 C67.4,34.4 80.8,16.8 96.2,8 C110.4,-0.2 122.8,0.8 130.4,9 C123,4.4408921e-16 110.2,-1.4 95.4,7 C80,16 66.4,33.4 59.4,52 C57,52 54.4,52.8 51.6,54.4 C41.6,60.2 33.4,74.4 33.4,86 C33.4,86.2 33.4,86.4 33.4,86.8 C30.6,87 27.4,88 24,90 C11,97.4 0.6,115.6 0.6,130.4 C0.6,136.2 2.2,140.8 5,143.6 C2.6,140.8 1.4,136.6 1.4,131.4 Z" id="Path"></path>
                        </g>
                    </g>
                </g>
            </g>
        </g>
    </g>
</svg>