<svg width="163" height="36" viewBox="0 0 163 36" fill="none" xmlns="http://www.w3.org/2000/svg">
<g id="sherlock_logo">
<path id="Sherlock" fill-rule="evenodd" clip-rule="evenodd" d="M63.2647 24.2087H64.3687C70.3527 24.2087 71.3447 22.1927 71.3447 20.2247V20.0007C71.3447 17.6327 69.5367 16.5447 65.0567 16.4647L63.0567 16.4327C60.6247 16.3847 60.3047 15.9207 60.3047 15.4087C60.3047 14.8967 60.5127 14.3847 63.3927 14.3847H63.6487C66.7687 14.3847 67.0087 15.3607 67.0887 15.8087H70.9607V15.6487C70.9607 13.8567 69.6807 11.8887 64.0487 11.8887H62.9447C57.5207 11.8887 56.4647 13.7447 56.4647 15.5207V15.6647C56.4647 17.5207 57.8247 19.0247 62.2727 19.1527L64.3207 19.2007C67.0727 19.2807 67.4407 19.7127 67.4407 20.4007C67.4407 21.0407 67.0887 21.6647 63.9527 21.6647H63.7287C60.6567 21.6647 60.2407 20.4967 60.1927 19.7767H56.3047V19.9527C56.3047 21.5207 57.0247 24.2087 63.2647 24.2087ZM73.4487 12.0967V24.0007H77.0167V19.9367C77.0167 18.5287 78.0567 17.6007 79.6567 17.6007C81.2407 17.6007 81.9607 18.4167 81.9607 19.7447V24.0007H85.5607V18.5607C85.5607 16.8967 84.3447 15.2007 81.3687 15.2007H81.2567C78.6967 15.2007 77.4007 16.4487 77.0167 16.8327V12.0967H73.4487ZM94.0807 17.1527H94.0647C92.2727 17.1527 91.4727 17.6967 91.2007 18.6087H96.9607C96.7207 17.6967 95.8887 17.1527 94.0807 17.1527ZM100.513 20.9767V20.9607H96.9927C96.9447 21.1687 96.5607 22.0647 94.1927 22.0647H94.1767C92.2087 22.0647 91.3447 21.3927 91.1367 20.3847H100.561V19.7927C100.561 17.6967 99.6327 15.1527 94.5767 15.1527H93.6007C88.9447 15.1527 87.6327 17.2807 87.6327 19.4887V19.8407C87.6327 22.0967 89.1047 24.2407 93.6967 24.2407H94.6087C99.7447 24.2407 100.513 22.1447 100.513 20.9767ZM106.217 19.5527V24.0007H102.649V15.3927H106.185V16.9127C106.489 16.4327 107.529 15.2007 109.673 15.2007H109.849C112.345 15.2007 113.353 16.8167 113.353 19.0407V19.5367H109.913C109.913 18.4327 109.433 17.4727 108.089 17.4727H108.073C106.873 17.4727 106.217 18.4487 106.217 19.5527ZM118.977 24.0007V12.0967H115.409V24.0007H118.977ZM134.553 19.7927C134.553 21.7767 133.705 24.2407 128.393 24.2407H127.273C122.281 24.2407 121.081 21.7767 121.081 19.7927V19.5047C121.081 17.5207 122.265 15.1527 127.257 15.1527H128.393C133.641 15.1527 134.553 17.5527 134.553 19.5047V19.7927ZM130.937 19.6967C130.937 20.7047 130.265 21.9207 127.833 21.9207C125.401 21.9207 124.729 20.7047 124.729 19.6967V19.6167C124.729 18.5287 125.401 17.4407 127.833 17.4407H127.849C130.249 17.4407 130.937 18.5447 130.937 19.6167V19.6967ZM143.137 24.2407H142.257C137.345 24.2407 136.257 21.7287 136.257 19.8087V19.4887C136.257 17.5687 137.329 15.1527 142.241 15.1527H143.153C148.529 15.1527 149.201 17.7607 149.201 18.9127V18.9607H145.537C145.457 18.6247 145.137 17.4087 142.689 17.4087H142.641C140.561 17.4087 139.905 18.4487 139.905 19.5367V19.6487C139.905 20.8007 140.577 21.9527 142.641 21.9527H142.689C145.105 21.9527 145.457 20.7047 145.537 20.3687H149.201V20.4007C149.201 21.6007 148.641 24.2407 143.137 24.2407ZM151.257 24.0007H154.825V20.0487L158.569 24.0007H162.761L158.201 19.2807L162.265 15.3927H158.313L154.825 18.8327V12.0967H151.257V24.0007Z" fill="white"/>
<path id="Combined Shape" fill-rule="evenodd" clip-rule="evenodd" d="M20.5 36C31.8218 36 41 27.9411 41 18C41 8.05887 31.8218 0 20.5 0C9.17816 0 0 8.05887 0 18C0 27.9411 9.17816 36 20.5 36ZM13.5 11.5C13.5 11.5 18.5 10.5 21 12C23.5 13.5 24.5 13 25.5 13.5C26.5 14 29 16.5 31 20.5L38.5 24.5C38.5 24.5 18.5 28.5 0 36C0 36 2.5 32 3 30C3.5 28 4 25 4 24.5C4 24 3.5 20.5 3.5 20.5L9.5 14C9.5 10.5 13.5 11.5 13.5 11.5Z" fill="#C396FF"/>
</g>
</svg>
