<svg width="99" height="200" viewBox="0 0 99 200" fill="none" xmlns="http://www.w3.org/2000/svg">
<path fill-rule="evenodd" clip-rule="evenodd" d="M-29.9368 43.7869L48.2481 3.82341C65.4221 -4.95492 86.4381 1.89525 95.1887 19.1237C103.939 36.3521 97.1107 57.4348 79.9368 66.2131L1.7519 106.177C-15.4221 114.955 -36.4381 108.105 -45.1887 90.8763C-53.9393 73.6479 -47.1107 52.5652 -29.9368 43.7869Z" fill="#4C68EF"/>
<path fill-rule="evenodd" clip-rule="evenodd" d="M-52.9368 133.787L25.2481 93.8234C42.4221 85.0451 63.4381 91.8952 72.1887 109.124C80.9393 126.352 74.1107 147.435 56.9368 156.213L-21.2481 196.177C-38.4221 204.955 -59.4381 198.105 -68.1887 180.876C-76.9393 163.648 -70.1107 142.565 -52.9368 133.787Z" fill="#42E8E0"/>
</svg>
