<svg width="99" height="200" viewBox="0 0 99 200" fill="none" xmlns="http://www.w3.org/2000/svg">
<path fill-rule="evenodd" clip-rule="evenodd" d="M42.0632 43.7869L120.248 3.82341C137.422 -4.95492 158.438 1.89525 167.189 19.1237C175.939 36.3521 169.111 57.4348 151.937 66.2131L73.7519 106.177C56.5779 114.955 35.5619 108.105 26.8113 90.8763C18.0607 73.6479 24.8893 52.5652 42.0632 43.7869Z" fill="#8743F5"/>
<path fill-rule="evenodd" clip-rule="evenodd" d="M19.0632 133.787L97.2481 93.8234C114.422 85.0451 135.438 91.8952 144.189 109.124C152.939 126.352 146.111 147.435 128.937 156.213L50.7519 196.177C33.5779 204.955 12.5619 198.105 3.81132 180.876C-4.93926 163.648 1.88926 142.565 19.0632 133.787Z" fill="#42E8E0"/>
</svg>
