<svg width="38" height="61" viewBox="0 0 38 61" fill="none" xmlns="http://www.w3.org/2000/svg">
<path fill-rule="evenodd" clip-rule="evenodd" d="M38 19.2281C37.9967 16.4664 35.7601 13.1008 33 11.7043L11 0.599742C8.23995 -0.790101 6.00331 0.317586 6 3.07597V7.07597C6 7.62825 6.44772 8.30196 7 8.58072C7.55228 8.85949 8 8.63776 8 8.08548V4.08548C8 2.42862 9.34315 1.76344 11 2.59974L33 13.7043C34.6569 14.5406 36 16.5617 36 18.2186V20.2186L12 8.1045C11.4477 7.82573 11 8.04746 11 8.59974C11 9.15203 11.4477 9.82573 12 10.1045L37 22.7234C37.5523 23.0021 38 22.7804 38 22.2281V19.2281ZM38 27.2281C38 26.6758 37.5523 26.0021 37 25.7234C36.4477 25.4446 36 25.6663 36 26.2186V56.2186C36 57.8755 34.6569 58.5406 33 57.7043L11 46.5997C9.34315 45.7634 8 43.7423 8 42.0855V34.0855C8 33.5332 7.55228 32.8595 7 32.5807C6.44772 32.302 6 32.5237 6 33.076V41.076C6.00331 43.8377 8.23995 47.2033 11 48.5997L33 59.7043C35.7601 61.0942 37.9967 59.9865 38 57.2281V27.2281ZM11 40.5997C11 40.0475 11.4477 39.8257 12 40.1045L32 50.1996C32.5523 50.4784 33 51.1521 33 51.7043C33 52.2566 32.5523 52.4784 32 52.1996L12 42.1045C11.4477 41.8257 11 41.152 11 40.5997ZM13.586 33.905L17.293 39.4832C17.579 39.9134 18.009 40.216 18.3827 40.2498C18.7563 40.2837 18.9999 40.0421 19 39.6378V36.6378L26 40.1711C28.2091 41.2861 30 40.3992 30 38.1901V26.1901C30 23.9809 28.2091 21.2861 26 20.1711L4 9.06646C1.79086 7.95139 0 8.83831 0 11.0474V23.0474C0 25.2566 1.79086 27.9514 4 29.0665L13.586 33.905ZM2 24.057C2 25.1615 2.89543 26.5089 4 27.0665L14 32.114C14.2652 32.2479 14.5195 32.4817 14.707 32.7639L17 36.2143V34.6283C17 34.076 17.4477 33.8543 18 34.133L26 38.1711C27.1046 38.7286 28 38.2851 28 37.1806V25.1806C28 24.076 27.1046 22.7286 26 22.1711L4 11.0665C2.89543 10.5089 2 10.9524 2 12.057V24.057ZM8 18.0855C8 18.6378 8.44771 19.3115 9 19.5902L23 26.6568C23.5523 26.9356 24 26.7138 24 26.1615C24 25.6093 23.5523 24.9356 23 24.6568L9 17.5902C8.44771 17.3115 8 17.5332 8 18.0855ZM17 27.6283C17 28.1806 16.5523 28.4023 16 28.1235L7 23.5807C6.44772 23.302 6 22.6283 6 22.076C6 21.5237 6.44772 21.302 7 21.5807L16 26.1235C16.5523 26.4023 17 27.076 17 27.6283ZM24 31.1615C24 30.6093 23.5523 29.9356 23 29.6568L21 28.6473C20.4477 28.3685 20 28.5902 20 29.1425C20 29.6948 20.4477 30.3685 21 30.6473L23 31.6568C23.5523 31.9356 24 31.7138 24 31.1615Z" fill="#38CBAA"/>
</svg>
