<?xml version="1.0" encoding="UTF-8"?>
<svg width="622px" height="50px" viewBox="0 0 622 50" version="1.1" xmlns="http://www.w3.org/2000/svg" xmlns:xlink="http://www.w3.org/1999/xlink">
    <!-- Generator: Sketch 54.1 (76490) - https://sketchapp.com -->
    <title>sherlockPlatform</title>
    <desc>Created with Sketch.</desc>
    <defs>
        <linearGradient x1="0%" y1="61.344871%" x2="100%" y2="61.344871%" id="linearGradient-1">
            <stop stop-color="#E3C7FF" offset="0%"></stop>
            <stop stop-color="#C396FF" offset="100%"></stop>
        </linearGradient>
    </defs>
    <g id="Main" stroke="none" stroke-width="1" fill="none" fill-rule="evenodd">
        <g id="Sherlock_MainPage" transform="translate(-272.000000, -222.000000)">
            <g id="00" transform="translate(-565.000000, -311.000000)">
                <g id="Content" transform="translate(835.000000, 533.000000)">
                    <g id="sherlockPlatform" transform="translate(2.000000, 0.000000)">
                        <path d="M18.8138717,50 C15.1611017,50 11.6294102,49.5078789 8.21869131,48.523622 C4.80797237,47.5393652 2.068436,46.2598504 0,44.6850394 L3.63074716,36.67979 C5.61116461,38.1233668 7.96562559,39.2825853 10.6942007,40.1574803 C13.4227759,41.0323753 16.1513101,41.4698163 18.8798852,41.4698163 C21.9165253,41.4698163 24.1609648,41.0214393 25.6132709,40.1246719 C27.065577,39.2279045 27.7917192,38.035878 27.7917192,36.5485564 C27.7917192,35.4549377 27.3626352,34.5472477 26.5044543,33.8254593 C25.6462734,33.1036709 24.546058,32.5240617 23.2037751,32.0866142 C21.8614921,31.6491667 20.0461367,31.1679816 17.7576543,30.6430446 C14.2369122,29.8118944 11.3543478,28.9807566 9.1098747,28.1496063 C6.8654016,27.318456 4.94002463,25.9842612 3.33368603,24.1469816 C1.72734744,22.3097021 0.924190187,19.8600328 0.924190187,16.7979003 C0.924190187,14.1294705 1.65033236,11.7126093 3.10263849,9.54724409 C4.55494461,7.38187894 6.74437328,5.66492323 9.67099017,4.39632546 C12.5976071,3.12772769 16.1733071,2.49343832 20.3981977,2.49343832 C23.3468192,2.49343832 26.2293836,2.84339108 29.0459773,3.54330709 C31.862571,4.2432231 34.3270535,5.24933727 36.4394988,6.56167979 L33.1388196,14.6325459 C28.8699197,12.2265846 24.6010839,11.023622 20.3321841,11.023622 C17.3395533,11.023622 15.1281203,11.5048071 13.6978188,12.4671916 C12.2675174,13.4295761 11.5523773,14.6981549 11.5523773,16.2729659 C11.5523773,17.8477769 12.3775389,19.0179314 14.0278868,19.7834646 C15.6782346,20.5489977 18.1977279,21.3035833 21.5864422,22.0472441 C25.1071844,22.8783944 27.9897487,23.7095322 30.2342218,24.5406824 C32.4786949,25.3718327 34.4040719,26.6841555 36.0104105,28.4776903 C37.6167491,30.2712251 38.4199063,32.6990223 38.4199063,35.7611549 C38.4199063,38.3858399 37.682762,40.7808291 36.2084513,42.9461942 C34.7341405,45.1115594 32.5227075,46.8285151 29.574086,48.0971129 C26.6254645,49.3657106 23.0387622,50 18.8138717,50 Z M66.6077071,13.3858268 C71.0086347,13.3858268 74.5623305,14.6981496 77.268901,17.3228346 C79.9754715,19.9475197 81.3287365,23.8407441 81.3287365,29.0026247 L81.3287365,49.2125984 L71.0306172,49.2125984 L71.0306172,30.5774278 C71.0306172,27.7777638 70.4144966,25.6889833 69.1822369,24.3110236 C67.9499771,22.933064 66.1676281,22.2440945 63.8351365,22.2440945 C61.2385892,22.2440945 59.1701842,23.0424242 57.6298595,24.6391076 C56.0895348,26.235791 55.3193841,28.6089081 55.3193841,31.7585302 L55.3193841,49.2125984 L45.0212648,49.2125984 L45.0212648,0.524934383 L55.3193841,0.524934383 L55.3193841,17.5853018 C56.6836716,16.2292146 58.3339947,15.1902923 60.2704029,14.4685039 C62.2068111,13.7467156 64.3192247,13.3858268 66.6077071,13.3858268 Z M125.425811,31.6929134 C125.425811,31.8241476 125.359798,32.7427736 125.22777,34.4488189 L98.3602413,34.4488189 C98.8443434,36.6360564 99.9885674,38.3639482 101.792948,39.6325459 C103.597328,40.9011437 105.841768,41.5354331 108.526333,41.5354331 C110.374723,41.5354331 112.014044,41.2620325 113.444345,40.7152231 C114.874647,40.1684137 116.205908,39.3044678 117.438167,38.1233596 L122.917295,44.0288714 C119.57259,47.8346647 114.687633,49.7375328 108.262279,49.7375328 C104.257435,49.7375328 100.714741,48.9610751 97.6340919,47.4081365 C94.5534425,45.8551978 92.1769773,43.7008012 90.5046247,40.9448819 C88.8322722,38.1889626 87.9961085,35.0612598 87.9961085,31.5616798 C87.9961085,28.1058445 88.8212701,24.9890778 90.471618,22.2112861 C92.1219658,19.4334944 94.3884096,17.2681617 97.2710172,15.7152231 C100.153625,14.1622844 103.377256,13.3858268 106.942007,13.3858268 C110.41874,13.3858268 113.565356,14.1294764 116.38195,15.6167979 C119.198544,17.1041194 121.409977,19.236644 123.016315,22.0144357 C124.622654,24.7922274 125.425811,28.0183543 125.425811,31.6929134 Z M107.008021,21.1286089 C104.675529,21.1286089 102.717146,21.7847703 101.132812,23.0971129 C99.5484779,24.4094554 98.5802884,26.2029633 98.2282142,28.4776903 L115.721814,28.4776903 C115.36974,26.246708 114.40155,24.4641362 112.817216,23.1299213 C111.232882,21.7957064 109.296503,21.1286089 107.008021,21.1286089 Z M142.127248,18.5695538 C143.359508,16.8635085 145.020833,15.5730577 147.111274,14.6981627 C149.201714,13.8232677 151.611186,13.3858268 154.339761,13.3858268 L154.339761,22.8346457 C153.19552,22.7471562 152.425369,22.7034121 152.029286,22.7034121 C149.080664,22.7034121 146.770212,23.5236138 145.097859,25.164042 C143.425507,26.8044701 142.589343,29.2650755 142.589343,32.5459318 L142.589343,49.2125984 L132.291224,49.2125984 L132.291224,13.9107612 L142.127248,13.9107612 L142.127248,18.5695538 Z M160.743079,0.524934383 L171.041198,0.524934383 L171.041198,49.2125984 L160.743079,49.2125984 L160.743079,0.524934383 Z M243.01601,49.7375328 C239.231212,49.7375328 235.831546,48.9610751 232.816911,47.4081365 C229.802275,45.8551978 227.447814,43.7008012 225.753457,40.9448819 C224.0591,38.1889626 223.211934,35.0612598 223.211934,31.5616798 C223.211934,28.0620997 224.0591,24.934397 225.753457,22.1784777 C227.447814,19.4225584 229.802275,17.2681617 232.816911,15.7152231 C235.831546,14.1622844 239.231212,13.3858268 243.01601,13.3858268 C246.756798,13.3858268 250.024438,14.1622844 252.819027,15.7152231 C255.613616,17.2681617 257.649015,19.4881745 258.925284,22.3753281 L250.93764,26.6404199 C249.08925,23.4033084 246.426729,21.7847769 242.949996,21.7847769 C240.26543,21.7847769 238.042995,22.6596588 236.282624,24.4094488 C234.522253,26.1592388 233.642081,28.543292 233.642081,31.5616798 C233.642081,34.5800676 234.522253,36.9641207 236.282624,38.7139108 C238.042995,40.4637008 240.26543,41.3385827 242.949996,41.3385827 C246.470738,41.3385827 249.13326,39.7200512 250.93764,36.4829396 L258.925284,40.8136483 C257.649015,43.6133123 255.613616,45.8005171 252.819027,47.3753281 C250.024438,48.9501391 246.756798,49.7375328 243.01601,49.7375328 Z M280.115644,35.3674541 L275.164626,40.2230971 L275.164626,49.2125984 L264.866506,49.2125984 L264.866506,0.524934383 L275.164626,0.524934383 L275.164626,28.0839895 L290.215723,13.9107612 L302.49425,13.9107612 L287.707207,28.8713911 L303.814521,49.2125984 L291.337954,49.2125984 L280.115644,35.3674541 Z M347.845582,3.2808399 C351.938445,3.2808399 355.492141,3.95887336 358.506776,5.31496063 C361.521412,6.6710479 363.842866,8.59578806 365.47121,11.0892388 C367.099553,13.5826896 367.913712,16.535416 367.913712,19.9475066 C367.913712,23.3158524 367.099553,26.2576427 365.47121,28.7729659 C363.842866,31.288289 361.521412,33.2130292 358.506776,34.5472441 C355.492141,35.881459 351.938445,36.5485564 347.845582,36.5485564 L338.537667,36.5485564 L338.537667,49.2125984 L327.843466,49.2125984 L327.843466,3.2808399 L347.845582,3.2808399 Z M347.25146,27.8871391 C350.464137,27.8871391 352.906616,27.1981696 354.578968,25.82021 C356.251321,24.4422503 357.087484,22.4847021 357.087484,19.9475066 C357.087484,17.3665663 356.251321,15.387146 354.578968,14.0091864 C352.906616,12.6312267 350.464137,11.9422572 347.25146,11.9422572 L338.537667,11.9422572 L338.537667,27.8871391 L347.25146,27.8871391 Z M375.439261,0.524934383 L385.73738,0.524934383 L385.73738,49.2125984 L375.439261,49.2125984 L375.439261,0.524934383 Z M409.634298,13.3858268 C415.135457,13.3858268 419.360284,14.6872136 422.308906,17.2900262 C425.257528,19.8928389 426.731816,23.8188714 426.731816,29.0682415 L426.731816,49.2125984 L417.093833,49.2125984 L417.093833,44.816273 C415.157425,48.0971293 411.548718,49.7375328 406.267605,49.7375328 C403.53903,49.7375328 401.173567,49.2782198 399.171145,48.3595801 C397.168722,47.4409403 395.639423,46.1723615 394.5832,44.5538058 C393.526978,42.93525 392.998874,41.097998 392.998874,39.0419948 C392.998874,35.7611385 394.242118,33.1802369 396.728642,31.2992126 C399.215166,29.4181883 403.054918,28.4776903 408.248012,28.4776903 L416.433697,28.4776903 C416.433697,26.246708 415.751563,24.5297523 414.387276,23.3267717 C413.022988,22.123791 410.976588,21.5223097 408.248012,21.5223097 C406.355614,21.5223097 404.49625,21.8175823 402.669865,22.4081365 C400.84348,22.9986906 399.292176,23.7970203 398.015907,24.8031496 L394.319146,17.6509186 C396.255554,16.2948314 398.577009,15.2449731 401.283579,14.5013123 C403.99015,13.7576516 406.773695,13.3858268 409.634298,13.3858268 Z M408.842135,42.847769 C410.602506,42.847769 412.164812,42.4431362 413.529099,41.6338583 C414.893387,40.8245804 415.861576,39.6325538 416.433697,38.0577428 L416.433697,34.4488189 L409.370243,34.4488189 C405.145353,34.4488189 403.032939,35.8267579 403.032939,38.5826772 C403.032939,39.8950197 403.55004,40.9339419 404.584258,41.6994751 C405.618476,42.4650082 407.037754,42.847769 408.842135,42.847769 Z M458.946446,47.5065617 C457.934232,48.2502224 456.690989,48.8079596 455.216678,49.17979 C453.742367,49.5516204 452.191064,49.7375328 450.56272,49.7375328 C446.33783,49.7375328 443.07019,48.6658025 440.759703,46.5223097 C438.449216,44.3788169 437.29399,41.2292421 437.29399,37.0734908 L437.29399,22.5721785 L431.814862,22.5721785 L431.814862,14.6981627 L437.29399,14.6981627 L437.29399,6.1023622 L447.592109,6.1023622 L447.592109,14.6981627 L456.437929,14.6981627 L456.437929,22.5721785 L447.592109,22.5721785 L447.592109,36.9422572 C447.592109,38.4295787 447.977184,39.5778612 448.747347,40.3871391 C449.517509,41.196417 450.606722,41.6010499 452.015019,41.6010499 C453.643362,41.6010499 455.029634,41.1636089 456.173875,40.2887139 L458.946446,47.5065617 Z M476.043964,14.6981627 L485.153839,14.6981627 L485.153839,22.5721785 L476.308018,22.5721785 L476.308018,49.2125984 L466.009899,49.2125984 L466.009899,22.5721785 L460.530772,22.5721785 L460.530772,14.6981627 L466.009899,14.6981627 L466.009899,13.1233596 C466.009899,9.09884252 467.209134,5.90552362 469.60764,3.54330709 C472.006145,1.18109055 475.383806,0 479.740725,0 C481.281049,0 482.744336,0.164040354 484.130628,0.492125984 C485.51692,0.820211614 486.672147,1.29046063 487.596341,1.90288714 L484.889784,9.3175853 C483.701534,8.48643504 482.315263,8.07086614 480.730929,8.07086614 C477.60627,8.07086614 476.043964,9.77688583 476.043964,13.1889764 L476.043964,14.6981627 Z M507.202376,49.7375328 C503.461588,49.7375328 500.105931,48.9610751 497.135304,47.4081365 C494.164678,45.8551978 491.843224,43.7008012 490.170871,40.9448819 C488.498519,38.1889626 487.662355,35.0612598 487.662355,31.5616798 C487.662355,28.0620997 488.498519,24.934397 490.170871,22.1784777 C491.843224,19.4225584 494.164678,17.2681617 497.135304,15.7152231 C500.105931,14.1622844 503.461588,13.3858268 507.202376,13.3858268 C510.943165,13.3858268 514.287819,14.1622844 517.236441,15.7152231 C520.185062,17.2681617 522.495515,19.4225584 524.167867,22.1784777 C525.84022,24.934397 526.676384,28.0620997 526.676384,31.5616798 C526.676384,35.0612598 525.84022,38.1889626 524.167867,40.9448819 C522.495515,43.7008012 520.185062,45.8551978 517.236441,47.4081365 C514.287819,48.9610751 510.943165,49.7375328 507.202376,49.7375328 Z M507.202376,41.3385827 C509.842933,41.3385827 512.010357,40.4527648 513.704714,38.6811024 C515.399071,36.90944 516.246237,34.5363228 516.246237,31.5616798 C516.246237,28.5870367 515.399071,26.2139196 513.704714,24.4422572 C512.010357,22.6705948 509.842933,21.7847769 507.202376,21.7847769 C504.561819,21.7847769 502.383393,22.6705948 500.667031,24.4422572 C498.950669,26.2139196 498.092501,28.5870367 498.092501,31.5616798 C498.092501,34.5363228 498.950669,36.90944 500.667031,38.6811024 C502.383393,40.4527648 504.561819,41.3385827 507.202376,41.3385827 Z M543.377821,18.5695538 C544.61008,16.8635085 546.271406,15.5730577 548.361846,14.6981627 C550.452287,13.8232677 552.861759,13.3858268 555.590334,13.3858268 L555.590334,22.8346457 C554.446093,22.7471562 553.675942,22.7034121 553.279858,22.7034121 C550.331237,22.7034121 548.020784,23.5236138 546.348432,25.164042 C544.676079,26.8044701 543.839916,29.2650755 543.839916,32.5459318 L543.839916,49.2125984 L533.541796,49.2125984 L533.541796,13.9107612 L543.377821,13.9107612 L543.377821,18.5695538 Z M607.477011,13.3858268 C611.921948,13.3858268 615.45364,14.6872136 618.072192,17.2900262 C620.690744,19.8928389 622,23.7969993 622,29.0026247 L622,49.2125984 L611.701881,49.2125984 L611.701881,30.5774278 C611.701881,27.7777638 611.118767,25.6889833 609.952521,24.3110236 C608.786275,22.933064 607.12495,22.2440945 604.968495,22.2440945 C602.547985,22.2440945 600.63361,23.0205522 599.225313,24.5734908 C597.817016,26.1264295 597.112879,28.4339304 597.112879,31.496063 L597.112879,49.2125984 L586.814759,49.2125984 L586.814759,30.5774278 C586.814759,25.0218445 584.57032,22.2440945 580.081374,22.2440945 C577.704873,22.2440945 575.812502,23.0205522 574.404205,24.5734908 C572.995909,26.1264295 572.291771,28.4339304 572.291771,31.496063 L572.291771,49.2125984 L561.993651,49.2125984 L561.993651,13.9107612 L571.829676,13.9107612 L571.829676,17.9790026 C573.149954,16.4916811 574.767271,15.3543346 576.681674,14.5669291 C578.596078,13.7795236 580.697489,13.3858268 582.985971,13.3858268 C585.4945,13.3858268 587.760944,13.8779478 589.785371,14.8622047 C591.809797,15.8464616 593.438116,17.2790807 594.670376,19.160105 C596.122682,17.3228255 597.960042,15.9011424 600.18251,14.8950131 C602.404979,13.8888839 604.836455,13.3858268 607.477011,13.3858268 Z" id="SherlockPlatform" fill="url(#linearGradient-1)" fill-rule="nonzero"></path>
                        <path d="M186.674355,46.704971 C183.755932,47.7403811 180.864481,48.8387241 178,50 C179.666667,47.3333333 180.666667,45.3333333 181,44 C181.152601,43.3895966 181.305202,42.686045 181.443588,41.9888468 C179.268316,39.1308643 178,35.6954848 178,32 C178,22.0588745 187.178163,14 198.5,14 C209.821837,14 219,22.0588745 219,32 C219,41.9411255 209.821837,50 198.5,50 C194.095679,50 190.01576,48.7804533 186.674355,46.704971 Z M186.674355,46.704971 C196.321521,43.2823099 206.263402,40.5473195 216.5,38.5 L209,34.5 C207,30.5 204.5,28 203.5,27.5 C202.5,27 201.5,27.5 199,26 C197.333333,25 194.833333,24.8333333 191.5,25.5 C188.833333,24.8333333 187.5,25.6666667 187.5,28 L181.5,34.5 C181.833333,36.8333333 182,38.1666667 182,38.5 C182,38.8473991 181.758628,40.4016599 181.443588,41.9888468 C182.843604,43.8282583 184.619306,45.4284962 186.674355,46.704971 Z" id="Combined-Shape" fill="#D6B3FF"></path>
                    </g>
                </g>
            </g>
        </g>
    </g>
</svg>