<svg width="48" height="55" viewBox="0 0 48 55" fill="none" xmlns="http://www.w3.org/2000/svg">
<path fill-rule="evenodd" clip-rule="evenodd" d="M11 34.6009C11 34.0486 10.5523 33.3764 10 33.0995L5 30.5923C3.34315 29.7615 2 27.7449 2 26.088V4.088C2 2.43115 3.34315 1.7615 5 2.5923L7 3.59517V27.5952C7 28.1475 7.44772 28.8197 8 29.0966C8.55229 29.3735 9 29.1503 9 28.598V3.59804C9 3.04575 8.55229 2.37354 8 2.09661L5 0.592302C2.23995 -0.788377 0.00330612 0.326735 0 3.08513V25.0851C0.00330612 27.8468 2.23995 31.205 5 32.5923L10 35.0995C10.5523 35.3764 11 35.1532 11 34.6009ZM48 27.154C47.9967 24.3923 45.7601 21.0341 43 19.6468L13 4.60378C12.4477 4.32684 12 4.55006 12 5.10234C12 5.65463 12.4477 6.32684 13 6.60378L43 21.6468C44.6569 22.4776 46 24.4943 46 26.1511V48.1511C46 49.808 44.6569 50.4776 43 49.6468L37 46.6382C36.4477 46.3613 36 46.5845 36 47.1368C36 47.689 36.4477 48.3613 37 48.6382L43 51.6468C45.7601 53.0275 47.9967 51.9124 48 49.154V27.154ZM41 44.6439C41 45.1962 40.5523 45.4194 40 45.1425C39.4477 44.8656 39 44.1934 39 43.6411V23.6411C39 23.0888 39.4477 22.8656 40 23.1425C40.5523 23.4194 41 24.0917 41 24.6439V44.6439ZM35 36.6353C35 34.9785 33.6569 32.9618 32 32.131C31.6586 31.9631 31.3203 31.8557 31 31.8136V31.6296C31 29.9727 29.6569 27.9561 28 27.1253C27.6586 26.9574 27.3203 26.85 27 26.8079V25.6239C27 23.967 25.6569 21.9504 24 21.1196C23.6586 20.9517 23.3203 20.8443 23 20.8021V19.6181C23 17.9613 21.6569 15.9446 20 15.1138C18.3431 14.283 17 14.9527 17 16.6095V20.6095C17 21.1618 17.4477 21.834 18 22.1109C18.5523 22.3879 19 22.1647 19 21.6124V17.6124C19 17.0601 19.4477 16.8369 20 17.1138C20.5523 17.3908 21 18.063 21 18.6153V26.6153C21 27.1675 21.4477 27.8398 22 28.1167C22.5523 28.3936 23 28.1704 23 27.6181V23.6181C23 23.0658 23.4477 22.8426 24 23.1196C24.5523 23.3965 25 24.0687 25 24.621V32.621C25 33.1733 25.4477 33.8455 26 34.1224C26.5523 34.3994 27 34.1761 27 33.6239V29.6239C27 29.0716 27.4477 28.8484 28 29.1253C28.5523 29.4022 29 30.0744 29 30.6267V37.6267C29 38.179 29.4477 38.8512 30 39.1282C30.5523 39.4051 31 39.1819 31 38.6296V34.6296C31 34.0773 31.4477 33.8541 32 34.131C32.5523 34.408 33 35.0802 33 35.6325V40.4325C32.633 41.1294 30.924 44.2505 29.293 45.0636C29.1047 45.1575 28.9993 45.3601 29 45.6267V47.6267L20 43.1138V41.1138C20.0021 40.734 19.7877 40.2776 19.447 39.9365C17.7131 38.3148 16.1872 36.3886 15 34.3226V24.6066C15 24.0544 15.4477 23.8311 16 24.1081C16.5523 24.385 17 25.0572 17 25.6095V29.6095C17 30.1618 17.4477 30.834 18 31.1109C18.5523 31.3879 19 31.1647 19 30.6124V26.6124C19 24.9555 17.6569 22.9389 16 22.1081C14.3431 21.2773 13 21.9469 13 23.6038V33.6038C12.9999 33.7588 13.0358 33.9299 13.105 34.1034C13.218 34.3851 14.272 36.8576 18 40.7189V42.1109L17 41.6095C15.8954 41.0556 15 41.5021 15 42.6066V44.6066C15 45.1589 15.4477 45.8311 16 46.1081C16.5523 46.385 17 46.1618 17 45.6095V43.6095L31 50.6296V52.6296C31 53.1819 31.4477 53.8541 32 54.131C32.5523 54.408 33 54.1847 33 53.6325V51.6325C33 50.5279 32.1046 49.1835 31 48.6296V47.0296C33.01 45.7765 34.848 42.1361 34.929 41.9747C34.9765 41.8793 35.0006 41.764 35 41.6353V36.6353Z" fill="#38CBAA"/>
</svg>
