<svg width="103" height="103" viewBox="0 0 103 103" fill="none" xmlns="http://www.w3.org/2000/svg">
<g id="viber">
<g id="Oval" filter="url(#filter0_d)">
<path fill-rule="evenodd" clip-rule="evenodd" d="M51.5 73C68.897 73 83 58.897 83 41.5C83 24.103 68.897 10 51.5 10C34.103 10 20 24.103 20 41.5C20 58.897 34.103 73 51.5 73Z" fill="#7B519D"/>
</g>
<g id="viber-icon">
<g id="Group">
<path id="Shape" fill-rule="evenodd" clip-rule="evenodd" d="M60.4208 47.0716C59.6494 46.4471 58.825 45.8866 58.0135 45.314C56.3951 44.171 54.9149 44.0822 53.7072 45.921C53.0291 46.9534 52.0798 46.9986 51.0871 46.5457C48.3506 45.298 46.2374 43.3756 44.9996 40.5787C44.4521 39.3414 44.4593 38.232 45.7404 37.3568C46.4187 36.894 47.102 36.3463 47.0474 35.335C46.976 34.0163 43.7919 29.6095 42.5345 29.1444C42.0142 28.9519 41.4961 28.9644 40.9667 29.1433C38.0184 30.1403 36.7971 32.5785 37.9667 35.4655C41.4558 44.0787 47.5961 50.0749 56.0485 53.7347C56.5304 53.9431 57.0658 54.0264 57.3368 54.1012C59.2612 54.1207 61.5155 52.2564 62.1665 50.4062C62.7933 48.6262 61.4686 47.9197 60.4208 47.0716ZM50.9435 30.0274C57.1228 30.9829 59.9726 33.9375 60.7595 40.1957C60.8325 40.7737 60.6183 41.6436 61.4385 41.6596C62.2957 41.676 62.0892 40.8191 62.0964 40.2404C62.1688 34.3464 57.0579 28.8823 51.1222 28.6808C50.6744 28.7456 49.7477 28.3703 49.6899 29.3796C49.6514 30.06 50.4316 29.9482 50.9435 30.0274Z" fill="white"/>
<path id="Path" fill-rule="evenodd" clip-rule="evenodd" d="M52.153 31.743C51.5587 31.671 50.774 31.3894 50.6351 32.2186C50.4901 33.089 51.3646 33.0006 51.9265 33.1271C55.743 33.9848 57.0719 35.3816 57.7003 39.1883C57.792 39.7432 57.6097 40.607 58.5477 40.4639C59.2428 40.3574 58.9917 39.617 59.0498 39.1845C59.0806 35.5298 55.9662 32.2034 52.153 31.743Z" fill="white"/>
<path id="Path_2" fill-rule="evenodd" clip-rule="evenodd" d="M52.5018 34.7321C52.105 34.7419 51.7156 34.7851 51.5698 35.2115C51.3508 35.8487 51.8115 36.0006 52.2805 36.0763C53.846 36.329 54.67 37.2573 54.8264 38.8272C54.8686 39.2533 55.1375 39.5985 55.5468 39.5499C56.1141 39.4819 56.1654 38.9742 56.148 38.4921C56.176 36.7284 54.1935 34.6899 52.5018 34.7321V34.7321Z" fill="white"/>
</g>
</g>
</g>
<defs>
<filter id="filter0_d" x="0" y="0" width="103" height="103" filterUnits="userSpaceOnUse" color-interpolation-filters="sRGB">
<feFlood flood-opacity="0" result="BackgroundImageFix"/>
<feColorMatrix in="SourceAlpha" type="matrix" values="0 0 0 0 0 0 0 0 0 0 0 0 0 0 0 0 0 0 127 0"/>
<feOffset dy="10"/>
<feGaussianBlur stdDeviation="10"/>
<feColorMatrix type="matrix" values="0 0 0 0 0.482353 0 0 0 0 0.317647 0 0 0 0 0.615686 0 0 0 0.4 0"/>
<feBlend mode="normal" in2="BackgroundImageFix" result="effect1_dropShadow"/>
<feBlend mode="normal" in="SourceGraphic" in2="effect1_dropShadow" result="shape"/>
</filter>
</defs>
</svg>
