<svg width="103" height="103" viewBox="0 0 103 103" fill="none" xmlns="http://www.w3.org/2000/svg">
<g id="vk">
<g id="Oval" filter="url(#filter0_d)">
<path d="M51.5 73C68.897 73 83 58.897 83 41.5C83 24.103 68.897 10 51.5 10C34.103 10 20 24.103 20 41.5C20 58.897 34.103 73 51.5 73Z" fill="#5181B8"/>
</g>
<g id="vk_2">
<path id="Logo" fill-rule="evenodd" clip-rule="evenodd" d="M66.3093 34.2079C66.5203 33.4974 66.3093 33 65.3245 33H62.0418C61.1977 33 60.8226 33.45 60.6115 33.9474C60.6115 33.9474 58.9468 38.0684 56.5786 40.7211C55.8048 41.5026 55.4766 41.7395 55.0545 41.7395C54.8435 41.7395 54.5387 41.5026 54.5387 40.7921V34.2079C54.5387 33.3553 54.3042 33 53.6008 33H48.4423C47.9265 33 47.5982 33.4026 47.5982 33.7579C47.5982 34.5632 48.7706 34.7526 48.9113 36.9789V41.8579C48.9113 42.9237 48.7237 43.1132 48.3017 43.1132C47.1996 43.1132 44.4797 38.9921 42.8853 34.2553C42.557 33.3789 42.2522 33 41.4081 33H38.1255C37.1876 33 37 33.45 37 33.9474C37 34.8237 38.102 39.1816 42.1819 44.9368C44.9018 48.8684 48.7237 51 52.1939 51C54.2807 51 54.5387 50.5263 54.5387 49.7211V46.7368C54.5387 45.7895 54.7262 45.6 55.4062 45.6C55.8986 45.6 56.7193 45.8368 58.6654 47.7316C60.8929 49.9816 61.2681 51 62.5108 51H65.7934C66.7313 51 67.2003 50.5263 66.9189 49.6026C66.6141 48.6789 65.559 47.3289 64.1521 45.7184C63.3783 44.7947 62.2294 43.8237 61.9012 43.3263C61.4088 42.6868 61.5494 42.4026 61.9012 41.8579C61.9012 41.8342 65.9107 36.15 66.3093 34.2079V34.2079Z" fill="white"/>
</g>
</g>
<defs>
<filter id="filter0_d" x="0" y="0" width="103" height="103" filterUnits="userSpaceOnUse" color-interpolation-filters="sRGB">
<feFlood flood-opacity="0" result="BackgroundImageFix"/>
<feColorMatrix in="SourceAlpha" type="matrix" values="0 0 0 0 0 0 0 0 0 0 0 0 0 0 0 0 0 0 127 0"/>
<feOffset dy="10"/>
<feGaussianBlur stdDeviation="10"/>
<feColorMatrix type="matrix" values="0 0 0 0 0.317647 0 0 0 0 0.505882 0 0 0 0 0.721569 0 0 0 0.4 0"/>
<feBlend mode="normal" in2="BackgroundImageFix" result="effect1_dropShadow"/>
<feBlend mode="normal" in="SourceGraphic" in2="effect1_dropShadow" result="shape"/>
</filter>
</defs>
</svg>
