<svg width="103" height="103" viewBox="0 0 103 103" fill="none" xmlns="http://www.w3.org/2000/svg">
<g id="whatsapp">
<g id="Oval" filter="url(#filter0_d)">
<path d="M51.5 73C68.897 73 83 58.897 83 41.5C83 24.103 68.897 10 51.5 10C34.103 10 20 24.103 20 41.5C20 58.897 34.103 73 51.5 73Z" fill="#53D336"/>
</g>
<g id="whatsapp-icon">
<path id="Shape" fill-rule="evenodd" clip-rule="evenodd" d="M61.9205 31.069C59.2884 28.4465 55.788 27.0015 52.0584 27C44.3741 27 38.12 33.2238 38.1169 40.8738C38.1159 43.3191 38.7579 45.7061 39.9779 47.8101L38 55L45.3906 53.0706C47.4269 54.1759 49.7195 54.7584 52.0529 54.7594H52.0586C59.7422 54.7594 65.9969 48.5349 66 40.8848C66.0015 37.1775 64.5527 33.6916 61.9205 31.069ZM52.0586 52.4161H52.0539C49.9746 52.4153 47.9352 51.8594 46.1561 50.8087L45.733 50.5588L41.3473 51.7038L42.5179 47.4482L42.2423 47.0119C41.0824 45.1758 40.4698 43.0536 40.4707 40.8747C40.4732 34.5163 45.6714 29.3433 52.0631 29.3433C55.1581 29.3445 58.0675 30.5457 60.2553 32.7254C62.4431 34.9051 63.6472 37.8026 63.6461 40.8839C63.6436 47.2428 58.4454 52.4161 52.0586 52.4161ZM56.0343 42.6513C56.3536 42.767 58.0662 43.6057 58.4146 43.7792C58.4826 43.8131 58.5461 43.8436 58.605 43.872C58.848 43.9888 59.0122 44.0678 59.0823 44.1842C59.1694 44.3288 59.1694 45.0229 58.8791 45.8327C58.5887 46.6425 57.197 47.3817 56.5278 47.4812C55.9275 47.5704 55.1681 47.6076 54.3336 47.3438C53.8277 47.184 53.1789 46.9707 52.3477 46.6135C49.0827 45.2104 46.8759 42.0612 46.4582 41.4651C46.4289 41.4232 46.4084 41.3939 46.3969 41.3787L46.3941 41.375C46.2098 41.1302 44.9746 39.49 44.9746 37.7925C44.9746 36.1955 45.7628 35.3585 46.1256 34.9732C46.1504 34.9468 46.1733 34.9226 46.1938 34.9003C46.513 34.5532 46.8905 34.4665 47.1227 34.4665C47.3549 34.4665 47.5873 34.4686 47.7903 34.4787C47.8153 34.4799 47.8413 34.4797 47.8682 34.4796C48.0712 34.4784 48.3244 34.4769 48.5741 35.0738C48.6702 35.3036 48.8108 35.6443 48.9591 36.0035C49.2588 36.7297 49.5899 37.5318 49.6481 37.6479C49.7352 37.8214 49.7933 38.0239 49.6772 38.2552C49.6599 38.2898 49.6438 38.3224 49.6285 38.3535C49.5412 38.5311 49.477 38.6615 49.3288 38.8337C49.2707 38.9012 49.2107 38.974 49.1506 39.0468C49.0306 39.1922 48.9107 39.3375 48.8063 39.441C48.6319 39.6139 48.4504 39.8015 48.6536 40.1486C48.8567 40.4957 49.5559 41.6311 50.5914 42.5502C51.7046 43.5384 52.6721 43.956 53.1626 44.1677C53.2583 44.2091 53.3359 44.2426 53.3928 44.2709C53.7411 44.4445 53.9443 44.4155 54.1475 44.1841C54.3508 43.9528 55.0183 43.1719 55.2505 42.8248C55.4828 42.4777 55.715 42.5355 56.0343 42.6513Z" fill="white"/>
</g>
</g>
<defs>
<filter id="filter0_d" x="0" y="0" width="103" height="103" filterUnits="userSpaceOnUse" color-interpolation-filters="sRGB">
<feFlood flood-opacity="0" result="BackgroundImageFix"/>
<feColorMatrix in="SourceAlpha" type="matrix" values="0 0 0 0 0 0 0 0 0 0 0 0 0 0 0 0 0 0 127 0"/>
<feOffset dy="10"/>
<feGaussianBlur stdDeviation="10"/>
<feColorMatrix type="matrix" values="0 0 0 0 0.32549 0 0 0 0 0.827451 0 0 0 0 0.211765 0 0 0 0.4 0"/>
<feBlend mode="normal" in2="BackgroundImageFix" result="effect1_dropShadow"/>
<feBlend mode="normal" in="SourceGraphic" in2="effect1_dropShadow" result="shape"/>
</filter>
</defs>
</svg>
